<?xml version="1.0" encoding="UTF-8"?>
<svg id="Layer_1" xmlns="http://www.w3.org/2000/svg" version="1.1" viewBox="0 0 1443.37 389">
  <!-- Generator: Adobe Illustrator 29.5.1, SVG Export Plug-In . SVG Version: 2.1.0 Build 141)  -->
  <g>
    <g>
      <path d="M1264.45,241.51c-.69,0-1.39-.02-2.11-.05-4.26-.19-8.66-1.26-12.99-3.17-3.09-1.37-6.28-3.1-9.51-5.17l-.68-.43-.64-.49c-10.98-8.42-17.22-16.31-19.65-24.82-2.59-9.02-1.03-18.92,4.76-30.24,1.37-3.21,3.51-6.95,6.63-11.62,3.32-4.98,7.68-10.16,12.94-15.39,5.71-5.68,12.59-10.64,20.46-14.76,8.47-4.43,18.17-7.09,28.83-7.93,2.13-.17,4.23-.25,6.24-.25,5.82,0,11.28.71,16.24,2.1,5.99,1.69,11.44,3.91,16.24,6.6,4.14,2.33,7.95,4.74,11.32,7.16.32.23.64.46.95.68,1.99-3.23,4.28-6.3,6.85-9.17,4.6-5.15,10.69-8.8,18.1-10.84,3.13-.9,6.47-1.36,9.92-1.36,1.82,0,3.71.13,5.61.38,5.67.76,11.16,2.87,16.34,6.29,7.1,4.07,12.47,8.56,16.41,13.71,4.74,6.21,7.38,12.9,7.86,19.9.6,8.81-1.57,17.94-6.47,27.12-4.12,7.72-9.74,15.07-16.69,21.86-6.89,6.73-14.72,12.38-23.27,16.79-9.11,4.7-18.3,7.44-27.31,8.14-2.25.18-4.47.27-6.59.27-5.86,0-11.33-.68-16.28-2.03-6.11-1.66-11.69-3.89-16.56-6.63-4.3-2.41-8.26-4.99-11.76-7.66-.22-.16-.43-.32-.64-.48-2.03,3.34-4.39,6.53-7.05,9.5-4.67,5.21-10.82,8.87-18.3,10.9l-.31.08-.31.07c-2.71.64-5.59.96-8.58.96Z" fill="#cdd6f4"/>
      <path d="M1294,146.39c6.04-.47,11.33-.07,15.86,1.2,4.52,1.28,8.55,2.9,12.08,4.88,3.52,1.98,6.7,3.98,9.53,6.02,2.82,2.03,5.46,3.77,7.89,5.21,2.43,1.44,4.81,2.06,7.14,1.88,3.02-.24,5.46-1.37,7.31-3.39,1.84-2.02,3.55-4.41,5.12-7.17,1.56-2.75,3.43-5.34,5.6-7.77,2.17-2.43,5.2-4.17,9.11-5.23,2.29-.68,4.91-.82,7.86-.43,2.95.4,5.89,1.6,8.84,3.63,5.1,2.86,8.87,5.88,11.31,9.07,2.44,3.19,3.77,6.41,3.99,9.65.36,5.23-1.07,10.86-4.28,16.87-3.21,6.02-7.61,11.75-13.2,17.2-5.59,5.46-11.82,9.95-18.71,13.5-6.89,3.55-13.59,5.58-20.09,6.09-6.28.49-11.74.11-16.38-1.16-4.64-1.26-8.73-2.89-12.25-4.86-3.52-1.98-6.71-4.04-9.54-6.2-2.84-2.16-5.47-3.89-7.89-5.21-2.43-1.31-4.92-1.87-7.47-1.67-3.02.24-5.46,1.37-7.31,3.39-1.85,2.02-3.55,4.41-5.12,7.17-1.56,2.75-3.44,5.34-5.6,7.77-2.17,2.43-5.21,4.17-9.11,5.23-1.61.38-3.42.52-5.4.42-2-.09-4.08-.62-6.24-1.58-2.17-.96-4.48-2.22-6.92-3.78-7.4-5.68-11.72-10.67-12.94-14.96-1.23-4.28.02-9.96,3.74-17.02.79-2.06,2.51-5.09,5.17-9.05,2.65-3.97,6.16-8.12,10.54-12.48,4.37-4.35,9.66-8.15,15.87-11.4,6.2-3.24,13.37-5.19,21.51-5.83Z" fill="#cba6f7"/>
    </g>
    <g>
      <path d="M1182.87,322.79c-3.62,0-7.34-.23-11.08-.68-13.69-1.66-25.71-4.82-35.73-9.38-11.14-5.07-20.21-12.15-26.95-21.03-6.61-8.69-11.11-19.2-13.39-31.22-2.07-10.9-2.37-23.52-.9-37.49l4.36-41.29c-12.43-3.8-18.63-11.4-21.68-17.46-4-7.92-5.19-18-3.74-31.71,1.4-13.3,5.33-23.22,12-30.34,6.04-6.44,13.92-10.15,22.96-10.84l2.03-19.22c.7-6.57,1.83-12.26,3.46-17.4,2.72-8.58,8.56-15.49,16.88-20,5.57-3.02,12.18-4.5,20.2-4.5,2.97,0,6.21.21,9.61.62,12.54,1.52,21.79,5.2,28.29,11.24,6.9,6.44,10.92,14.68,11.66,23.84.44,5.63.35,11.43-.27,17.26l-1.79,16.91,4.42.4.29.04c5.72.7,11.22,1.96,16.35,3.75,8.56,3.01,15.36,9.2,19.7,17.91,3.87,7.79,5.01,17.53,3.63,30.68-1.28,12.14-4.39,21.25-9.5,27.83-5.81,7.5-13.56,12.2-22.41,13.6-3.13.49-6.39.74-9.68.74-2.8,0-5.69-.18-8.61-.53l-.46-.06-3.64-.53s-3.95,37.43-3.97,37.57c5.58.84,10.72,2.15,15.3,3.9,8.33,3.2,14.81,9.15,18.77,17.2,3.53,7.23,4.57,16.2,3.29,28.28-1.37,12.97-4.55,22.14-10,28.87-6.35,7.84-14.74,12.3-24.25,12.88-1.71.1-3.45.16-5.18.16Z" fill="#cdd6f4"/>
      <path d="M1114.94,110.44l38.21,4.64,48.1,4.33c4.4.53,8.52,1.48,12.37,2.82,3.84,1.35,6.83,4.17,8.96,8.45,2.13,4.28,2.71,11.02,1.74,20.21-.89,8.45-2.76,14.51-5.61,18.18-2.85,3.68-6.31,5.84-10.36,6.48-4.06.64-8.4.68-13.03.11l-45.39-6.64-42.07-4.73c-6.67-1.31-11.11-4.18-13.34-8.6-2.23-4.42-2.83-11.47-1.81-21.16.94-8.94,3.26-15.38,6.97-19.34,3.7-3.95,8.79-5.53,15.28-4.75ZM1174.09,303.24c-11.81-1.43-21.86-4.04-30.14-7.81-8.28-3.77-14.84-8.84-19.68-15.22-4.84-6.37-8.13-14.13-9.86-23.27-1.74-9.14-1.96-19.79-.67-31.96l15.94-150.86c.55-5.22,1.44-9.76,2.67-13.64,1.23-3.87,3.83-6.89,7.82-9.05,3.98-2.16,10.14-2.73,18.48-1.72,8.34,1.01,14.21,3.11,17.63,6.29,3.41,3.19,5.3,7,5.65,11.44.35,4.45.28,9.03-.22,13.74l-15.62,147.88c-.42,3.97-.48,7.3-.17,9.98.3,2.68.97,4.71,2,6.09,1.03,1.39,2.56,2.45,4.59,3.2,2.03.75,4.55,1.31,7.56,1.67,5.09.62,9.55,1.67,13.39,3.14,3.83,1.47,6.66,4.08,8.5,7.82,1.83,3.75,2.32,9.71,1.45,17.91-.94,8.94-2.9,15.24-5.87,18.9-2.97,3.67-6.52,5.62-10.65,5.88-4.13.25-8.4.11-12.8-.42Z" fill="#b4befe"/>
    </g>
    <g>
      <path d="M997.92,315.64c-15.38,0-29.41-2.58-41.7-7.68-14.66-6.07-27.08-14.73-36.92-25.72-9.46-10.56-16.87-22.68-22.02-36.02-5.05-13.04-7.98-26.47-8.71-39.9-1.19-21.83,2.5-41.93,10.97-59.72,8.56-17.99,21.21-32.75,37.6-43.87,16.42-11.13,35.64-17.46,57.14-18.81,2.74-.17,5.47-.26,8.11-.26,12.99,0,24.94,2.11,35.5,6.27,12.61,4.97,23.38,11.98,32.04,20.83,8.4,8.6,14.94,18.21,19.45,28.58,4.49,10.33,7.05,20.61,7.59,30.58,1.01,18.52-2.96,33.42-11.81,44.3-2.77,3.41-5.87,6.37-9.25,8.87,3.63,3.34,6.89,7.49,9.74,12.42,2.64,4.06,4.59,8.18,5.79,12.27,1.13,3.9,1.81,7.83,2.02,11.74.46,8.37-1.57,20.7-13.83,31.89-7.51,6.85-17.42,12.27-30.3,16.55-11.72,3.9-25.88,6.39-42.1,7.4-3.14.2-6.27.3-9.29.3Z" fill="#cdd6f4"/>
      <path d="M1006.02,296.37c-16.29,1.02-30.47-.97-42.53-5.97-12.07-5-22.07-11.95-30.03-20.84-7.96-8.89-14.11-18.95-18.46-30.2-4.35-11.24-6.83-22.6-7.46-34.08-1.02-18.71,2.03-35.55,9.15-50.52,7.12-14.96,17.49-27.07,31.11-36.31,13.62-9.24,29.51-14.43,47.66-15.57,13.49-.85,25.31.73,35.46,4.72,10.14,4,18.61,9.48,25.41,16.43,6.8,6.96,12,14.59,15.6,22.87,3.61,8.29,5.62,16.3,6.04,24.03.75,13.72-1.78,24.14-7.57,31.27-5.8,7.12-13.47,10.98-23.01,11.58l-83.07,5.21c.8,6.21,3.25,11.44,7.33,15.69,4.08,4.25,9.1,7.44,15.06,9.57,5.95,2.13,12.18,2.99,18.7,2.58,5.35-.34,10.16-.95,14.43-1.84,4.27-.89,7.89-2,10.85-3.31,2.96-1.31,5.64-2.61,8.02-3.88,2.38-1.28,4.6-2.35,6.65-3.23,2.05-.88,4-1.5,5.85-1.87,3.24-.45,6.44.41,9.6,2.59,3.15,2.19,6.02,5.57,8.61,10.16,1.78,2.65,3.03,5.2,3.75,7.65.71,2.46,1.14,4.94,1.28,7.43.34,6.24-2.22,11.84-7.66,16.82-5.45,4.98-13.28,9.16-23.48,12.55-10.21,3.39-22.64,5.55-37.29,6.47ZM962.64,187.94l55.14-3.46c3.49-.22,6.13-1.07,7.91-2.56,1.79-1.49,2.57-4.23,2.35-8.22-.23-4.24-1.72-8.02-4.47-11.36-2.75-3.33-6.33-5.8-10.74-7.4-4.41-1.6-9.52-2.22-15.33-1.85-6.98.44-13.18,2.33-18.6,5.67-5.42,3.34-9.56,7.61-12.43,12.8-2.87,5.19-4.15,10.65-3.83,16.39Z" fill="#cba6f7"/>
    </g>
    <g>
      <path d="M711.31,320.72c-8.78,0-15.9-1.74-21.78-5.33-7.77-4.73-13.32-11.8-16.02-20.45-1.72-5.47-2.9-11.45-3.49-17.74l-19.19-204.78c-.55-5.86-.46-11.66.26-17.23,1.14-8.9,5.56-16.83,12.77-22.92,6.61-5.58,15.92-8.95,28.47-10.3,3.47-.37,6.72-.56,9.65-.56,7.55,0,13.67,1.25,18.72,3.83,5.72,2.93,10.9,7.14,15.43,12.53l76.4,91.63-6.9-73.65c-.56-6.03-.39-12,.51-17.75,1.35-8.62,5.67-16.32,12.5-22.25,6.52-5.67,15.73-9.07,28.15-10.41,3.08-.33,6.02-.5,8.73-.5,8.83,0,15.97,1.73,21.83,5.29,7.94,4.86,13.46,12.08,16,20.91,1.54,5.4,2.61,11.22,3.19,17.33l19.05,203.28c.56,6.01.51,11.97-.16,17.73-1.07,9.12-5.37,17.23-12.45,23.46-6.66,5.87-16.07,9.38-28.76,10.75-3.55.38-6.87.58-9.85.58-4.43,0-8.28-.41-11.77-1.25-7.42-1.8-13.94-5.81-19.41-11.91l-.19-.21-78.86-93.42,6.65,70.94c.56,6.01.51,11.97-.16,17.73-1.06,9.01-5.23,17.05-12.07,23.26-6.58,5.97-16,9.54-28.79,10.91-2.97.32-5.82.48-8.45.48Z" fill="#cdd6f4"/>
      <path d="M717.73,301.34c-8.35.9-14.45.17-18.3-2.17-3.85-2.35-6.45-5.64-7.78-9.9-1.34-4.25-2.24-8.86-2.7-13.84l-19.19-204.78c-.42-4.48-.36-8.82.19-13.02.54-4.2,2.61-7.82,6.19-10.84,3.58-3.02,9.66-5,18.24-5.92s14.24-.46,17.69,1.3c3.44,1.77,6.61,4.37,9.52,7.83l115.59,138.63-12.62-134.65c-.42-4.48-.3-8.82.36-13.04.66-4.22,2.72-7.83,6.19-10.84,3.46-3.01,9.37-4.97,17.72-5.86s14.79-.21,18.65,2.14c3.85,2.35,6.38,5.66,7.6,9.92,1.22,4.27,2.06,8.88,2.53,13.86l19.05,203.28c.44,4.73.4,9.32-.12,13.76-.52,4.45-2.57,8.25-6.13,11.4-3.57,3.15-9.65,5.18-18.23,6.11-6.49.7-11.54.61-15.13-.25-3.6-.87-6.83-2.9-9.71-6.11l-117.78-139.52,12.3,131.29c.44,4.73.4,9.32-.12,13.76-.52,4.45-2.51,8.25-5.96,11.38-3.46,3.13-9.48,5.17-18.05,6.09Z" fill="#b4befe"/>
    </g>
    <g>
      <path d="M612.56,307.43c-5.01,0-10.53-.79-16.88-2.42-12.59-3.23-21.66-8.47-27.74-16.04-.16-.2-.32-.4-.47-.59-2.22.56-4.52,1.05-6.91,1.47-3.44.6-7.05.9-10.73.9-6.51,0-13.5-.95-20.8-2.82-13.29-3.41-25.37-9.81-35.92-19.02-10.12-8.84-18.51-19.72-24.92-32.35-6.22-12.22-10.47-25.51-12.63-39.49-2.23-14.33-1.72-28.91,1.49-43.34,3.18-14.26,8.89-27.42,16.98-39.11,7.96-11.51,17.59-21.29,28.63-29.05,11.15-7.85,23.25-13.37,35.94-16.4,6.42-1.53,12.95-2.31,19.42-2.31,6.96,0,14,.9,20.93,2.67,10.82,2.77,20.03,7.02,27.38,12.62,2.28,1.74,4.43,3.54,6.45,5.37.34-.16.69-.32,1.05-.48,4.62-2.01,9.88-3.03,15.61-3.03,5.06,0,10.49.76,16.59,2.32,12.3,3.15,21.01,8.02,26.61,14.88,5.85,7.18,8.74,15.81,8.38,25-.23,5.72-1.02,11.62-2.34,17.56l-28.04,125.79c-1.27,5.7-3.04,11.24-5.25,16.46-3.76,8.85-10.38,15.39-19.15,18.94-4.06,1.64-8.65,2.46-13.67,2.46ZM560.21,161.47c-1.28,0-2.5.2-3.73.62-2.74.93-5.01,2.47-7.15,4.85-2.11,2.36-3.56,5.38-4.42,9.23-.76,3.4-.68,6.58.25,9.72.95,3.22,2.56,5.96,4.93,8.35,2.18,2.21,4.6,3.59,7.62,4.37,1.09.28,2.12.42,3.04.42h0c1.05,0,1.99-.17,2.98-.54,2.5-.94,4.74-2.57,6.85-5,2.11-2.44,3.54-5.43,4.37-9.15.89-3.99.89-7.49,0-10.7-.87-3.14-2.31-5.72-4.39-7.88-1.82-1.89-3.94-3.1-6.64-3.79-1.32-.34-2.57-.51-3.73-.51Z" fill="#cdd6f4"/>
      <path d="M600.39,286.6c-8.39-2.15-14.27-5.33-17.65-9.53-3.38-4.2-4.44-8.59-3.18-13.15l4.78-5.33c-1.9,2.08-5.18,4.39-9.81,6.93-4.64,2.54-10.39,4.41-17.24,5.6-6.86,1.19-14.71.66-23.55-1.6-10.43-2.67-19.81-7.65-28.13-14.92-8.33-7.27-15.15-16.15-20.48-26.64-5.33-10.49-8.93-21.76-10.8-33.8-1.87-12.04-1.45-24.14,1.26-36.29,2.65-11.91,7.34-22.72,14.06-32.43,6.71-9.71,14.69-17.82,23.93-24.32,9.23-6.5,19.04-10.98,29.42-13.47,10.38-2.48,20.78-2.38,31.21.29,8.38,2.15,15.24,5.26,20.57,9.32,5.32,4.06,9.59,8.31,12.8,12.72,3.2,4.42,5.48,8.48,6.82,12.15l-1.92-5.89c1.3-5.83,4.27-9.76,8.92-11.78,4.64-2.02,11.27-1.93,19.89.28,8.16,2.09,13.7,4.93,16.62,8.5,2.92,3.58,4.28,7.65,4.1,12.23-.18,4.58-.82,9.3-1.9,14.16l-28.04,125.79c-1.03,4.62-2.43,9.01-4.2,13.19-1.77,4.17-4.7,7.08-8.78,8.74-4.09,1.65-10.32,1.4-18.71-.75ZM553,217.03c6.12,1.57,11.93,1.32,17.42-.74,5.49-2.06,10.33-5.51,14.53-10.34,4.19-4.83,7.05-10.65,8.57-17.46,1.57-7.05,1.49-13.69-.23-19.91-1.73-6.22-4.74-11.55-9.02-15.99-4.29-4.44-9.48-7.44-15.61-9.01-6.35-1.63-12.44-1.45-18.27.52-5.83,1.97-10.9,5.37-15.21,10.17-4.31,4.81-7.25,10.74-8.82,17.78-1.46,6.56-1.27,12.97.57,19.22,1.84,6.25,5.06,11.7,9.66,16.35,4.59,4.65,10.07,7.78,16.41,9.41Z" fill="#cba6f7"/>
    </g>
    <g>
      <path d="M330.62,360.03c-8.7,0-17.82-3.42-28.72-10.76-13.7-9.24-21.09-19.29-22.59-30.74-1.34-10.17,1.68-21.16,9.23-33.58l34.56-57.95-48.93-113c-5.79-13.65-7.09-25.07-3.97-34.93,3.35-10.6,11.87-19.06,26.03-25.87l.31-.15c9.24-4.24,17.22-6.3,24.38-6.3,4.76,0,9.21.91,13.21,2.71,9.39,4.24,16.81,13.05,22.72,26.95l23.44,54.67,23.7-39.75c8.13-14.17,17.2-22.19,27.72-24.52,2.17-.48,4.45-.72,6.77-.72,8.34,0,17.53,3.15,28.09,9.62l.6.37.57.41c13.06,9.4,20.17,19.25,21.73,30.11,1.43,10-1.41,20.7-8.68,32.73l-116.06,195.42c-5.19,9.05-13.66,21.37-27.4,24.53-2.16.5-4.42.75-6.72.75Z" fill="#cdd6f4"/>
      <path d="M354.59,251.9l-62.92-145.32c-3.91-9.21-5.03-16.46-3.35-21.76,1.67-5.29,7.06-10.11,16.14-14.48,9.81-4.5,17.1-5.67,21.87-3.53,4.77,2.15,9.1,7.83,13.01,17.04l46.21,107.8-30.97,60.25ZM312.53,333.51c-8.84-5.96-13.63-11.78-14.37-17.45-.75-5.68,1.47-12.78,6.66-21.3l115.57-193.82c5.29-9.26,10.42-14.45,15.41-15.55,4.98-1.1,11.92,1.08,20.83,6.54,8.57,6.17,13.24,11.96,14.02,17.39.78,5.43-1.28,12.18-6.16,20.24l-116.18,195.62c-5.29,9.26-10.37,14.45-15.24,15.57-4.87,1.12-11.72-1.3-20.56-7.25Z" fill="#b4befe"/>
    </g>
    <g>
      <path d="M92,342.47c-5.37,0-10.26-.94-14.55-2.8-8.4-3.64-14.85-9.94-18.65-18.23-2.39-5.2-4.3-10.97-5.66-17.14L8.85,104.04c-1.27-5.74-1.9-11.5-1.87-17.13.03-8.9,3.39-17.31,9.72-24.29,5.8-6.4,14.55-11.01,26.75-14.11,6.68-1.7,12.33-2.52,17.29-2.52,4.18,0,7.87.57,11.29,1.75,6.09,2.12,11.8,5.59,17,10.33l87.28,80.21-16.08-72.72c-1.3-5.9-1.87-11.84-1.69-17.67.27-8.67,3.57-16.83,9.54-23.6,5.7-6.47,14.34-11.11,26.42-14.18,6.16-1.57,11.56-2.33,16.49-2.33,5.35,0,10.23.93,14.48,2.78,8.58,3.73,15.03,10.19,18.68,18.7,2.2,5.16,3.98,10.79,5.31,16.77l43.97,198.79c1.3,5.88,1.98,11.81,2.03,17.61.07,9.13-3.16,17.69-9.34,24.8-5.81,6.68-14.63,11.45-26.97,14.59-6.81,1.73-12.58,2.57-17.62,2.57-1.34,0-2.65-.06-3.9-.18-7.64-.74-14.67-3.82-20.92-9.15l-.22-.19-89.95-81.64,15.5,70.07c1.3,5.88,1.98,11.81,2.03,17.61.06,9.02-3.04,17.5-8.98,24.54-5.72,6.77-14.55,11.6-26.98,14.76-5.99,1.52-11.25,2.26-16.1,2.26Z" fill="#cdd6f4"/>
      <path d="M103.42,321.79c-8.16,2.08-14.3,2.22-18.41.44-4.11-1.78-7.09-4.68-8.93-8.71-1.85-4.02-3.31-8.46-4.39-13.33L27.41,99.94c-.97-4.38-1.44-8.69-1.42-12.93.02-4.24,1.62-8.12,4.8-11.62,3.18-3.5,8.96-6.32,17.35-8.46s14.06-2.48,17.69-1.23c3.63,1.26,7.1,3.4,10.4,6.41l131.68,121.01-29.12-131.68c-.97-4.38-1.39-8.7-1.25-12.97.13-4.27,1.73-8.15,4.8-11.62,3.06-3.47,8.68-6.25,16.84-8.33,8.39-2.13,14.64-2.31,18.75-.53,4.11,1.79,7.03,4.7,8.76,8.75,1.73,4.06,3.14,8.51,4.22,13.38l43.97,198.79c1.02,4.62,1.55,9.18,1.58,13.66.03,4.49-1.52,8.54-4.67,12.17-3.15,3.62-8.92,6.51-17.31,8.64-6.35,1.62-11.36,2.25-15.03,1.9-3.67-.36-7.13-1.91-10.38-4.68l-133.97-121.59,28.4,128.39c1.02,4.62,1.55,9.18,1.58,13.66.03,4.49-1.47,8.53-4.5,12.13-3.04,3.6-8.75,6.46-17.14,8.6Z" fill="#cba6f7"/>
    </g>
  </g>
  <g>
    <g>
      <path d="M1412.82,362.59c-.53,0-1.07-.01-1.63-.04-1.94-.1-3.87-.39-5.74-.87-2.13-.55-4.05-1.33-5.72-2.33-2.87-1.72-4.87-4.33-5.67-7.37-.41-1.41-.56-2.9-.44-4.43.08-1.23.35-2.53.78-3.83.31-.94.73-1.91,1.24-2.9-.38-.53-.73-1.09-1.06-1.67-1.17-2.07-1.94-4.52-2.3-7.3-.5-3.86-.01-7.41,1.44-10.55,1.49-3.22,3.89-5.85,7.14-7.83,2.75-1.67,6.08-2.8,9.91-3.37,1.09-.16,2.2-.26,3.31-.29.21,0,.41,0,.61,0,1.07,0,2.15.08,3.22.24,1.15.18,2.25.41,3.32.71,1.05.29,2.11.67,3.17,1.12,4.21,1.55,7.01,4.8,7.71,8.98.44,2.6.11,5.26-.99,7.91.69.71,1.33,1.49,1.9,2.35,1.56,2.29,2.54,5.06,2.97,8.45,1,7.77-1.98,12.85-4.67,15.75-3.44,3.72-8.37,6.08-14.65,7.01-1.22.18-2.52.27-3.86.27Z" fill="#cdd6f4"/>
      <path d="M1415.39,353.63c-1.13.17-2.38.22-3.76.15-1.38-.07-2.71-.27-4.02-.61-1.3-.33-2.43-.78-3.37-1.35-.95-.57-1.52-1.3-1.72-2.18-.14-.44-.19-.92-.15-1.45.04-.53.16-1.1.36-1.7.2-.6.49-1.25.87-1.95.27-.54.6-.91.98-1.11s.88-.25,1.48-.15c.69.04,1.39.17,2.1.41.71.24,1.45.5,2.21.77s1.54.5,2.33.68c.79.18,1.59.21,2.38.09,1.17-.17,2.06-.5,2.66-.98.6-.48.86-1.05.77-1.73-.06-.49-.25-.88-.57-1.15s-.72-.49-1.23-.64c-.51-.15-1.1-.28-1.78-.39-.68-.1-1.38-.2-2.11-.27-.74-.07-1.52-.19-2.35-.34-1.05-.17-2.09-.42-3.14-.77-1.05-.35-2.01-.86-2.89-1.53-.88-.67-1.62-1.55-2.23-2.62-.61-1.08-1.02-2.45-1.23-4.11-.28-2.2-.05-4.11.7-5.73.75-1.62,2-2.96,3.74-4.02,1.74-1.06,3.95-1.79,6.63-2.18.76-.11,1.51-.18,2.28-.2s1.53.03,2.29.14c.76.12,1.52.28,2.27.49.75.21,1.51.49,2.28.83,1.34.44,2.1,1.2,2.28,2.27s-.03,2.25-.63,3.52c-.37.79-.78,1.39-1.24,1.8-.46.41-.97.61-1.52.6-.69-.08-1.45-.28-2.28-.59-.83-.31-1.7-.58-2.6-.82-.91-.23-1.78-.29-2.61-.16-.71.11-1.3.3-1.78.57-.48.28-.82.6-1.03.98-.21.37-.28.79-.22,1.23.08.58.29,1.02.65,1.31.36.29.82.51,1.4.65.57.14,1.23.25,1.96.33.73.07,1.53.14,2.39.19,1.16.06,2.36.19,3.6.39,1.24.21,2.4.59,3.48,1.17,1.08.57,2,1.42,2.76,2.54.76,1.12,1.27,2.67,1.53,4.65.46,3.55-.34,6.43-2.4,8.66-2.06,2.23-5.23,3.66-9.5,4.29Z" fill="#cba6f7"/>
    </g>
    <g>
      <path d="M1381.38,364.29c-3.38,0-6.52-.57-9.33-1.71-3.42-1.38-6.34-3.38-8.68-5.96-2.16-2.37-3.87-5.1-5.06-8.12-1.14-2.88-1.82-5.86-2.01-8.85-.31-4.86.5-9.38,2.39-13.44,1.93-4.14,4.8-7.56,8.55-10.15,3.76-2.6,8.12-4.1,12.98-4.45.7-.05,1.39-.08,2.07-.08,2.93,0,5.67.48,8.14,1.43,3,1.15,5.59,2.81,7.71,4.94,2,2.01,3.57,4.28,4.67,6.75,1.09,2.44,1.72,4.92,1.87,7.36.25,4.02-.5,7.47-2.23,10.29.48.86.85,1.73,1.12,2.62.33,1.1.53,2.22.6,3.34.24,3.77-1.24,7.34-4.15,10.04-1.91,1.77-4.32,3.15-7.37,4.19-2.6.89-5.53,1.44-8.97,1.69-.78.06-1.56.09-2.31.09Z" fill="#cdd6f4"/>
      <path d="M1383.06,355.45c-2.95.21-5.53-.12-7.72-1.01s-4.02-2.13-5.48-3.73c-1.46-1.6-2.59-3.41-3.39-5.44s-1.27-4.09-1.4-6.17c-.21-3.39.31-6.45,1.58-9.18,1.27-2.73,3.13-4.94,5.59-6.64,2.46-1.7,5.33-2.67,8.62-2.91,2.45-.18,4.59.09,6.44.8,1.84.71,3.39,1.69,4.63,2.93,1.24,1.25,2.2,2.62,2.87,4.12.67,1.5,1.04,2.95,1.13,4.35.16,2.49-.29,4.38-1.33,5.68-1.04,1.3-2.43,2.02-4.16,2.14l-15.06,1.09c.16,1.13.61,2.07,1.35,2.83.75.76,1.66,1.33,2.74,1.71,1.08.38,2.21.52,3.4.44.97-.07,1.84-.19,2.61-.36.77-.17,1.43-.38,1.96-.62.53-.24,1.02-.48,1.45-.72.43-.23.83-.44,1.2-.6s.72-.28,1.06-.35c.59-.09,1.17.06,1.74.45s1.1,1,1.58,1.83c.33.48.56.94.69,1.38.13.44.21.89.24,1.34.07,1.13-.38,2.15-1.36,3.06-.98.91-2.39,1.69-4.24,2.32-1.85.63-4.1,1.05-6.75,1.24ZM1375.03,335.86l10-.72c.63-.05,1.11-.2,1.43-.48.32-.27.46-.77.41-1.5-.05-.77-.33-1.45-.83-2.05s-1.16-1.04-1.96-1.32c-.8-.28-1.73-.39-2.78-.31-1.26.09-2.39.45-3.37,1.06-.98.62-1.72,1.4-2.24,2.34-.51.95-.74,1.94-.67,2.98Z" fill="#b4befe"/>
    </g>
    <g>
      <path d="M1357.38,373.6c-1.67,0-3.23-.3-4.65-.88-2.98-1.21-5.27-3.56-6.42-6.59-.45-1.18-.81-2.44-1.07-3.73l-4.73-23.18c-.28-1.38-.43-2.76-.46-4.09-.02-1.22.15-2.42.49-3.56-.85-.98-1.53-2.09-2.03-3.32-.5-1.24-.9-2.59-1.19-4-.3-1.49-.46-2.87-.48-4.23-.05-3.08,1.1-6.03,3.24-8.3,1.8-1.92,4.3-3.24,7.62-4.02,1.46-.34,2.8-.51,4.07-.51,1.76,0,3.39.33,4.87.97,2.86,1.25,5.07,3.52,6.23,6.4.51,1.27.91,2.64,1.21,4.08.27,1.34.43,2.71.46,4.06.03,1.34-.16,2.65-.56,3.9.76.91,1.38,1.94,1.84,3.06.51,1.26.92,2.6,1.2,4.01l4.72,23.12c.28,1.37.43,2.74.46,4.08.05,3.07-1.07,5.99-3.15,8.23-1.77,1.91-4.24,3.22-7.54,4-1.49.35-2.84.52-4.13.52Z" fill="#cdd6f4"/>
      <path d="M1351.75,326.54c-1.57.37-2.73.39-3.49.05s-1.29-.88-1.6-1.64-.55-1.59-.73-2.47c-.19-.93-.29-1.8-.31-2.61-.01-.81.27-1.53.86-2.15.59-.63,1.66-1.12,3.23-1.49s2.67-.37,3.43-.04c.76.33,1.29.88,1.6,1.64.31.76.55,1.61.74,2.54.17.84.27,1.68.29,2.51.02.83-.26,1.56-.82,2.18-.57.62-1.63,1.12-3.2,1.48ZM1359.5,364.53c-1.53.36-2.67.38-3.43.07-.76-.31-1.27-.84-1.56-1.58-.28-.74-.51-1.54-.68-2.38l-4.73-23.18c-.17-.84-.27-1.66-.28-2.47s.26-1.52.83-2.14c.57-.62,1.61-1.11,3.14-1.47s2.6-.35,3.34-.02c.74.34,1.26.88,1.56,1.62.3.74.54,1.55.72,2.44l4.72,23.11c.17.84.26,1.67.28,2.47.01.81-.26,1.51-.8,2.1-.55.59-1.59,1.07-3.12,1.43Z" fill="#cba6f7"/>
    </g>
    <g>
      <path d="M1332.14,365.96c-1,0-1.97-.06-2.9-.18-3.12-.4-5.9-1.49-8.26-3.24-2.27-1.68-4.12-3.94-5.47-6.71-1.13-2.3-1.91-4.92-2.4-8l-.6-3.78c-1.45-.62-2.74-1.53-3.82-2.7-1.82-1.97-2.94-4.56-3.51-8.13-.56-3.49-.16-6.57,1.16-9.15.64-1.24,1.47-2.33,2.45-3.24l-.02-.14c-.25-1.54-.34-2.95-.28-4.29.12-2.94,1.33-5.66,3.5-7.82,1.9-1.9,4.44-3.12,7.76-3.73,1.18-.22,2.26-.32,3.3-.32,2.03,0,3.89.41,5.53,1.22,2.78,1.38,4.87,3.72,5.9,6.58.24.67.45,1.36.62,2.06,2.92.23,5.62,1.57,7.66,3.81,1.78,1.96,2.9,4.56,3.44,7.96.5,3.16.29,5.83-.66,8.16-.84,2.06-2.13,3.77-3.79,5.04,1.36.65,2.58,1.56,3.61,2.7,1.67,1.86,2.72,4.32,3.23,7.52.53,3.32.29,6.09-.74,8.47-1.28,2.97-3.6,5.22-6.53,6.33-1.19.45-2.47.81-3.77,1.05-1.9.35-3.72.53-5.42.53Z" fill="#cdd6f4"/>
      <path d="M1316.58,326.43l6.87-1.26,8.58-1.85c.79-.15,1.55-.2,2.29-.18.73.03,1.39.36,1.96.98.57.63.99,1.77,1.25,3.43.24,1.52.2,2.68-.12,3.47s-.82,1.36-1.5,1.69c-.68.33-1.43.57-2.26.73l-8.22,1.3-7.55,1.46c-1.22.13-2.13-.13-2.73-.78-.6-.65-1.03-1.84-1.31-3.59-.26-1.61-.16-2.86.3-3.75.46-.89,1.27-1.44,2.44-1.65ZM1335.97,356.8c-2.13.39-4,.48-5.62.27-1.62-.21-3-.74-4.15-1.58-1.14-.85-2.08-2.02-2.81-3.52-.73-1.5-1.27-3.34-1.62-5.53l-4.34-27.14c-.15-.94-.21-1.78-.18-2.52.03-.74.34-1.41.93-2,.59-.59,1.64-1.02,3.14-1.3s2.62-.23,3.37.14c.75.37,1.25.93,1.52,1.69.27.76.47,1.56.61,2.41l4.25,26.6c.11.72.26,1.3.44,1.75.18.45.39.77.63.95.24.19.56.29.95.31.39.02.85-.02,1.4-.12.92-.17,1.74-.23,2.48-.18.74.05,1.35.35,1.85.9.49.55.86,1.56,1.1,3.04.26,1.61.21,2.81-.13,3.61-.35.8-.87,1.33-1.58,1.6-.71.27-1.46.48-2.25.62Z" fill="#b4befe"/>
    </g>
    <g>
      <path d="M1299.9,374.57c-3.05-.05-5.81-.49-8.22-1.31-2.96-1-5.46-2.6-7.44-4.75-1.91-2.07-3.31-4.62-4.14-7.56-.7-2.47-1.02-5.19-.97-8.3l.06-3.95c-1.33-.88-2.46-2.03-3.33-3.41-1.4-2.23-2.06-5.04-2.01-8.58.06-3.56.99-6.54,2.77-8.85.83-1.08,1.82-1.98,2.93-2.69v-.05c.02-1.56.18-2.96.47-4.28.63-2.88,2.37-5.43,4.91-7.15,2.15-1.46,4.76-2.17,7.99-2.17h.4c3.47.07,6.23.92,8.44,2.6,2.44,1.87,4.04,4.51,4.55,7.46.13.76.22,1.53.27,2.31,2.85.76,5.28,2.59,6.9,5.19,1.38,2.24,2.02,4.97,1.97,8.39-.05,3.23-.73,5.84-2.09,7.97-1.18,1.85-2.73,3.29-4.58,4.24,1.25.9,2.31,2.04,3.13,3.38,1.29,2.11,1.89,4.7,1.84,7.92-.05,3.38-.78,6.08-2.22,8.25-1.82,2.74-4.56,4.54-7.71,5.06-1.12.19-2.3.28-3.49.28h-.41Z" fill="#cdd6f4"/>
      <path d="M1286.26,332.09l6.97.12,8.75-.12c.8.01,1.56.11,2.28.28.72.17,1.3.63,1.76,1.36.45.73.67,1.94.64,3.62-.02,1.54-.26,2.67-.72,3.39s-1.04,1.17-1.77,1.36c-.72.19-1.51.28-2.35.26l-8.3-.35-7.67-.07c-1.23-.11-2.07-.55-2.55-1.3-.48-.76-.7-2.02-.67-3.79.03-1.63.34-2.84.94-3.62.6-.78,1.5-1.16,2.68-1.14ZM1300.06,365.79c-2.16-.04-4.01-.32-5.57-.85-1.56-.53-2.82-1.32-3.8-2.38-.98-1.06-1.7-2.4-2.16-4.02-.46-1.62-.67-3.54-.64-5.76l.43-27.53c.01-.95.1-1.79.26-2.51.16-.72.58-1.32,1.26-1.78.68-.46,1.79-.68,3.31-.65,1.52.03,2.62.3,3.29.81.67.51,1.07,1.17,1.21,1.96.13.8.2,1.62.18,2.49l-.42,26.99c-.01.73.03,1.33.13,1.8.1.48.25.83.46,1.06.21.23.5.4.88.49.38.1.84.15,1.39.16.93.02,1.75.12,2.47.32.72.2,1.27.61,1.66,1.25.39.64.58,1.71.55,3.21-.03,1.63-.28,2.81-.75,3.52-.48.72-1.09,1.14-1.83,1.26-.74.12-1.51.18-2.32.16Z" fill="#cba6f7"/>
    </g>
    <g>
      <path d="M1264.77,370.06c-1.2,0-2.46-.14-3.86-.44-3.34-.71-5.87-2-7.72-3.94-2.16-2.26-3.32-5.24-3.25-8.37.03-1.26.17-2.56.41-3.86l4.28-23.28c.25-1.38.63-2.72,1.11-3.96.44-1.14,1.04-2.18,1.78-3.1-.42-1.24-.64-2.55-.64-3.88,0-1.35.14-2.74.4-4.15.28-1.5.65-2.84,1.14-4.1,1.15-2.97,3.42-5.3,6.4-6.53,1.44-.6,3.06-.91,4.8-.91,1.22,0,2.49.15,3.91.44,3.4.72,5.97,2.06,7.83,4.1,2.07,2.28,3.16,5.08,3.15,8.13,0,1.36-.14,2.77-.41,4.21-.25,1.37-.62,2.7-1.1,3.95-.47,1.24-1.14,2.38-1.96,3.36.36,1.14.54,2.34.55,3.57,0,1.36-.13,2.75-.39,4.17l-4.27,23.21c-.25,1.38-.63,2.71-1.11,3.96-1.15,2.97-3.38,5.27-6.28,6.51-1.44.61-3.05.92-4.78.92Z" fill="#cdd6f4"/>
      <path d="M1269.76,322.88c-1.58-.33-2.65-.82-3.22-1.45s-.86-1.36-.86-2.19.09-1.69.25-2.58c.17-.94.4-1.77.69-2.52.29-.75.82-1.28,1.59-1.6.77-.32,1.94-.32,3.52.02s2.59.8,3.16,1.43c.57.63.86,1.36.86,2.19,0,.83-.09,1.71-.26,2.65-.16.84-.38,1.65-.67,2.42-.29.77-.82,1.32-1.56,1.64-.75.33-1.91.32-3.49,0ZM1262.74,361.04c-1.54-.32-2.59-.79-3.17-1.4-.58-.61-.86-1.31-.84-2.12.02-.8.11-1.63.26-2.47l4.29-23.28c.16-.84.38-1.64.66-2.39s.81-1.28,1.56-1.61c.75-.33,1.89-.33,3.43,0s2.51.79,3.07,1.41c.55.62.83,1.34.83,2.15,0,.81-.08,1.66-.24,2.55l-4.27,23.21c-.16.84-.38,1.64-.66,2.39-.29.75-.8,1.28-1.52,1.58-.73.31-1.86.3-3.39-.02Z" fill="#b4befe"/>
    </g>
    <g>
      <path d="M1243.26,374.3c-2.47,0-4.83-.81-6.81-2.35-1.13-.88-2.22-2.02-3.3-3.47-.37.21-.75.4-1.15.57-1.43.62-3.04.93-4.76.93-1.27,0-2.61-.17-4.09-.51-3.37-.78-5.89-2.15-7.69-4.19-1.98-2.22-3.05-5.1-3.01-8.08.02-1.33.17-2.73.46-4.15l7.76-38.27c.3-1.49.74-2.91,1.32-4.21,1.2-2.75,3.39-4.93,6.16-6.12,1.44-.62,3.04-.94,4.76-.94,1.27,0,2.61.17,4.09.51,3.33.78,5.83,2.14,7.62,4.16,1.99,2.24,3.06,5.12,3.02,8.09-.02,1.36-.18,2.77-.48,4.22l-.55,2.69c2.11.09,4.16.75,5.95,1.93,1.9,1.26,3.46,3.06,4.76,5.49.76,1.39,3.11,5.75,1.94,10.47-.77,3.12-2.79,5.76-6.15,8.08l-.09.06,1.79,2.32.13.18c2.3,3.31,3.26,6.67,2.85,9.98-.44,3.54-2.4,6.64-5.81,9.26l-.19.14c-2.09,1.51-4.04,2.47-5.96,2.91-.86.2-1.72.3-2.58.3Z" fill="#cdd6f4"/>
      <path d="M1247.73,356.72c1.04,1.49,1.49,2.79,1.35,3.9-.14,1.1-.95,2.23-2.43,3.36-1.12.81-2.05,1.3-2.8,1.47-.75.17-1.42.03-2.02-.44s-1.27-1.22-2-2.28l-7.87-11.44-1.16,5.71c-.18.89-.42,1.69-.71,2.41-.3.72-.81,1.24-1.55,1.55-.74.32-1.87.3-3.39-.06s-2.57-.84-3.11-1.46c-.55-.61-.81-1.32-.8-2.13.01-.81.11-1.66.29-2.54l7.76-38.27c.18-.89.43-1.7.75-2.43.32-.74.85-1.26,1.59-1.58.73-.32,1.86-.3,3.39.06s2.5.83,3.05,1.44c.54.61.81,1.33.8,2.13-.01.81-.11,1.68-.3,2.61l-4.05,20,8.4-5.56c1-.65,1.89-1.04,2.67-1.19.78-.14,1.5,0,2.15.43.65.43,1.27,1.2,1.87,2.31,1.01,1.86,1.39,3.26,1.16,4.2s-1.11,1.93-2.61,2.97l-8.01,4.95,7.61,9.85Z" fill="#cba6f7"/>
    </g>
    <g>
      <path d="M1182.58,374.78c-.88,0-1.8-.07-2.8-.21-3.45-.48-6.08-1.63-8.05-3.51-2.19-2.07-3.5-4.9-3.67-7.95-.08-1.34-.03-2.72.13-4.09l2.86-23.52c.18-1.45.47-2.84.89-4.11.94-2.92,2.99-5.34,5.77-6.77,1.71-.89,3.71-1.34,5.92-1.34.87,0,1.77.07,2.74.2,1.98.28,3.68.77,5.15,1.5,1.19-.28,2.44-.42,3.72-.42.85,0,1.73.06,2.61.19.81.11,1.67.29,2.56.52,1.11.29,2.24.72,3.35,1.27,1.28.63,2.46,1.42,3.5,2.34,1.34,1.18,2.42,2.61,3.19,4.23.97,2.07,1.32,4.37,1.03,6.71-.43,3.5-1.66,6.53-3.67,9-2.51,3.08-5.92,4.77-9.6,4.77-.55,0-1.12-.04-1.67-.12-.11-.02-.22-.03-.33-.05l-1.12,9.2c-.17,1.38-.46,2.73-.86,4.01-.97,3.07-3.09,5.52-5.97,6.93-1.66.81-3.58,1.23-5.69,1.23Z" fill="#cdd6f4"/>
      <path d="M1181,365.88c-1.55-.22-2.62-.61-3.21-1.17-.59-.56-.91-1.26-.96-2.09-.05-.83-.02-1.67.08-2.53l2.86-23.53c.11-.9.28-1.72.52-2.46.24-.74.72-1.31,1.45-1.68.73-.38,1.87-.46,3.42-.24,1.47.21,2.5.57,3.1,1.08.6.52.95,1.07,1.05,1.66.1.59.12,1.08.08,1.48l-.8.3c.11-.17.36-.46.78-.89.41-.42.97-.85,1.66-1.28.69-.43,1.51-.76,2.46-.99.94-.23,2-.27,3.18-.1.46.06.97.17,1.53.32.56.15,1.13.36,1.71.65.58.29,1.11.63,1.57,1.04.46.41.82.88,1.07,1.42.25.54.34,1.17.25,1.89-.22,1.84-.81,3.35-1.77,4.52-.95,1.17-2.04,1.67-3.25,1.5-.71-.1-1.21-.22-1.49-.38-.28-.15-.5-.32-.67-.51-.17-.18-.37-.35-.61-.5-.24-.15-.69-.27-1.36-.36-.63-.09-1.24-.08-1.82.02-.59.1-1.15.31-1.67.62-.53.32-.96.73-1.3,1.26-.34.52-.56,1.15-.64,1.86l-1.8,14.77c-.1.85-.28,1.66-.52,2.43-.24.77-.73,1.33-1.45,1.68-.73.36-1.87.43-3.42.21Z" fill="#b4befe"/>
    </g>
    <g>
      <path d="M1157.33,368.26c-.2,0-.39,0-.59,0-3.17-.08-6.3-.82-9.32-2.2-2.9-1.32-5.55-3.18-7.86-5.51-2.37-2.38-4.25-5.23-5.59-8.46-1.37-3.3-2.02-6.92-1.93-10.76.08-3.59.81-7,2.19-10.13,1.33-3.05,3.18-5.79,5.47-8.13,2.32-2.38,5.03-4.26,8.03-5.59,2.99-1.32,6.18-1.99,9.48-1.99.21,0,.42,0,.63,0,4.71.12,9.04,1.48,12.87,4.03,3.66,2.44,6.58,5.72,8.69,9.73,2.11,4.04,3.13,8.49,3.02,13.23-.09,3.98-.9,7.64-2.42,10.87-1.48,3.15-3.47,5.89-5.91,8.15-2.43,2.26-5.18,3.98-8.16,5.13-2.82,1.08-5.72,1.63-8.6,1.63Z" fill="#cdd6f4"/>
      <path d="M1156.97,359.48c-1.99-.05-3.95-.52-5.9-1.41-1.95-.89-3.71-2.12-5.28-3.7-1.57-1.58-2.81-3.46-3.71-5.64-.9-2.18-1.33-4.58-1.27-7.21.05-2.45.54-4.71,1.45-6.8.91-2.09,2.15-3.92,3.71-5.52,1.56-1.59,3.33-2.83,5.31-3.71,1.99-.88,4.1-1.29,6.34-1.23,3.04.08,5.78.93,8.22,2.56,2.44,1.63,4.37,3.8,5.79,6.51,1.42,2.71,2.09,5.7,2.02,8.96-.06,2.76-.59,5.21-1.59,7.34s-2.31,3.94-3.93,5.44c-1.62,1.5-3.4,2.62-5.34,3.37s-3.88,1.09-5.83,1.04ZM1157.07,349.21c1.01.03,2.06-.22,3.12-.74s1.97-1.31,2.72-2.38c.74-1.07,1.13-2.44,1.17-4.12.03-1.45-.24-2.73-.8-3.83s-1.36-1.97-2.38-2.61c-1.02-.64-2.21-.97-3.56-1.01-1.27-.03-2.41.26-3.41.87-1.01.61-1.83,1.46-2.47,2.56-.64,1.1-.97,2.34-1,3.75-.04,1.63.28,3.01.96,4.14.67,1.13,1.53,1.97,2.58,2.51,1.04.55,2.07.83,3.09.86Z" fill="#cba6f7"/>
    </g>
    <g>
      <path d="M1124.05,372.06c-2.96,0-5.5-.71-7.56-2.11-2.47-1.67-4.21-4.2-4.9-7.1-.31-1.28-.5-2.68-.57-4.13l-.56-11.51c-1.38-.78-2.57-1.85-3.52-3.16-1.57-2.17-2.39-4.86-2.57-8.45-.17-3.55.56-6.57,2.18-9,.82-1.23,1.83-2.26,2.99-3.07.12-1.28.34-2.55.67-3.81.67-2.61,1.83-5.04,3.44-7.21,1.72-2.31,3.97-4.21,6.68-5.63,2.67-1.4,5.79-2.21,9.27-2.4.39-.02.77-.03,1.14-.03,1.02,0,2.04.08,3.02.23,3.1.49,5.82,2.2,7.66,4.82,1.48,2.1,2.26,4.71,2.43,8.21.13,2.66-.19,4.92-.96,6.87.17.2.33.42.49.64,1.52,2.13,2.34,4.82,2.51,8.25.16,3.21-.35,5.85-1.56,8.07-1.46,2.68-3.71,4.61-6.51,5.58-.07.02-.14.05-.21.07l.5,10.34c.07,1.48-.01,2.94-.25,4.34-.5,2.96-2.02,5.51-4.39,7.38-2.14,1.68-4.84,2.58-8.27,2.77-.4.02-.79.03-1.17.03Z" fill="#cdd6f4"/>
      <path d="M1116.45,330.16l6.97-.39,8.72-.76c.8-.04,1.57,0,2.29.11.73.12,1.34.53,1.84,1.22.5.7.79,1.89.87,3.56.07,1.54-.09,2.68-.5,3.43-.41.75-.97,1.25-1.67,1.49-.71.24-1.48.39-2.33.44l-8.3.26-7.66.5c-1.23-.02-2.1-.39-2.62-1.11-.52-.72-.83-1.96-.91-3.73-.08-1.63.16-2.86.71-3.68.55-.82,1.42-1.27,2.6-1.34ZM1124.73,363.26c-1.52.08-2.62-.1-3.3-.57-.68-.46-1.11-1.08-1.3-1.87-.19-.78-.3-1.63-.35-2.53l-1.55-31.78c-.07-1.54.08-3.07.48-4.59.39-1.52,1.05-2.91,1.99-4.16.93-1.25,2.17-2.29,3.72-3.1,1.55-.81,3.44-1.28,5.68-1.41.8-.04,1.58,0,2.32.11.75.12,1.36.51,1.84,1.19.48.68.76,1.87.84,3.59.08,1.63-.1,2.82-.53,3.57-.43.75-1.01,1.21-1.74,1.39-.73.18-1.5.29-2.3.33-.55.03-1,.09-1.36.18-.36.09-.64.21-.84.35-.21.15-.35.38-.44.71-.09.32-.12.71-.1,1.16l1.56,32.11c.04.86,0,1.68-.13,2.46-.13.78-.52,1.42-1.18,1.94-.65.51-1.76.81-3.32.9Z" fill="#b4befe"/>
    </g>
    <g>
      <path d="M1081.42,371.21c-2.39,0-4.67-.32-6.8-.96-3.54-1.06-6.63-2.8-9.19-5.16-2.35-2.17-4.29-4.74-5.73-7.65-1.38-2.77-2.29-5.68-2.73-8.66-.7-4.81-.27-9.38,1.28-13.59,1.57-4.28,4.15-7.93,7.65-10.85,3.51-2.92,7.73-4.81,12.52-5.61,1.52-.25,3.01-.38,4.43-.38,2.04,0,4.02.26,5.86.78,3.1.87,5.83,2.29,8.13,4.23,2.17,1.83,3.93,3.96,5.23,6.33,1.29,2.34,2.12,4.76,2.47,7.19.58,3.98.11,7.48-1.38,10.45.54.81.99,1.65,1.33,2.52.42,1.07.71,2.18.87,3.29.54,3.71-.63,7.37-3.29,10.31-1.74,1.93-4.02,3.51-6.95,4.83-2.5,1.12-5.37,1.94-8.78,2.51-1.7.28-3.36.43-4.94.43Z" fill="#cdd6f4"/>
      <path d="M1084.91,362.12c-2.92.49-5.52.39-7.77-.29s-4.18-1.74-5.76-3.2c-1.58-1.45-2.86-3.16-3.82-5.11-.97-1.95-1.6-3.95-1.9-6.01-.49-3.36-.21-6.46.83-9.29,1.04-2.83,2.72-5.21,5.03-7.14,2.31-1.92,5.09-3.15,8.35-3.7,2.42-.4,4.58-.34,6.48.19,1.89.53,3.51,1.36,4.85,2.49,1.34,1.13,2.4,2.41,3.19,3.84.79,1.43,1.28,2.84,1.48,4.22.36,2.46.07,4.39-.86,5.79-.93,1.39-2.25,2.23-3.97,2.52l-14.91,2.49c.25,1.11.77,2,1.58,2.69.81.69,1.76,1.17,2.87,1.45,1.11.28,2.25.31,3.42.12.96-.16,1.82-.36,2.58-.6.76-.24,1.39-.51,1.91-.8.51-.29.97-.58,1.38-.85.41-.27.79-.51,1.15-.71s.7-.35,1.02-.45c.58-.14,1.17-.05,1.77.29s1.18.89,1.72,1.67c.36.45.63.88.8,1.31.17.43.29.87.35,1.32.16,1.12-.21,2.18-1.11,3.18-.9,1-2.25,1.9-4.04,2.71-1.79.8-4,1.42-6.63,1.86ZM1075.32,343.36l9.9-1.65c.63-.1,1.09-.31,1.39-.61.3-.3.4-.81.29-1.53-.11-.76-.44-1.42-.99-1.97s-1.24-.93-2.06-1.14c-.82-.21-1.75-.22-2.8-.05-1.25.21-2.34.67-3.27,1.37-.92.7-1.6,1.55-2.04,2.54-.43.99-.58,2-.43,3.03Z" fill="#cba6f7"/>
    </g>
    <g>
      <path d="M1044.27,376.2c-3.09,0-6.09-.67-8.89-2-2.81-1.33-5.33-3.21-7.5-5.61-2.07-2.28-3.74-4.95-4.96-7.92-1.24-3.01-1.92-6.25-2.01-9.62-.09-3.3.42-6.52,1.51-9.58,1.06-3,2.61-5.73,4.59-8.13,2-2.42,4.36-4.41,7.01-5.9,2.64-1.49,5.48-2.36,8.44-2.6l-.04-1.62c-.03-1.23.01-2.46.13-3.64.32-3.06,1.8-5.82,4.15-7.79,2.21-1.84,5-2.78,8.57-2.89.26,0,.5-.01.74-.01,3.25,0,5.86.73,7.98,2.23,2.37,1.67,4.01,4.05,4.71,6.89.34,1.37.53,2.84.58,4.38l1.07,39.14c.04,1.4-.05,2.78-.26,4.1-.47,2.96-1.96,5.53-4.3,7.42-2.2,1.78-5,2.69-8.56,2.81-.22,0-.43.01-.64.01-1.95,0-3.72-.3-5.3-.89-1.97.73-4.1,1.13-6.35,1.2-.23,0-.45.01-.68.01Z" fill="#cdd6f4"/>
      <path d="M1044.68,367.42c-1.94.06-3.79-.32-5.55-1.15-1.76-.83-3.33-2.01-4.73-3.56-1.4-1.54-2.51-3.33-3.35-5.37-.84-2.04-1.29-4.21-1.35-6.52s.27-4.35,1-6.39c.73-2.04,1.75-3.86,3.09-5.47,1.33-1.61,2.85-2.89,4.56-3.85,1.71-.96,3.51-1.47,5.41-1.53,2.03-.06,3.82.32,5.39,1.16s2.89,2.01,3.97,3.51c1.08,1.51,1.92,3.27,2.52,5.29.6,2.02.96,4.14,1.06,6.36.06,2.31-.13,4.49-.58,6.55-.45,2.06-1.18,3.89-2.2,5.51-1.01,1.62-2.29,2.92-3.82,3.9-1.54.98-3.34,1.5-5.41,1.56ZM1045.67,357.32c1.14-.04,2.16-.37,3.05-1.01.89-.64,1.61-1.49,2.15-2.55.54-1.06.8-2.22.76-3.49s-.34-2.41-.92-3.41c-.58-1-1.34-1.79-2.29-2.38-.95-.58-2.01-.85-3.19-.82s-2.18.36-3.11.98c-.94.62-1.65,1.46-2.15,2.52-.5,1.06-.73,2.22-.7,3.49.03,1.27.34,2.42.92,3.44s1.36,1.83,2.35,2.41c.99.58,2.03.85,3.13.82ZM1056.97,367.1c-1.44.05-2.51-.17-3.22-.65-.71-.48-1.19-1.23-1.43-2.27l-1.13-41.18c-.02-.86,0-1.69.09-2.49.08-.8.44-1.45,1.06-1.97.62-.52,1.69-.8,3.21-.85,1.61-.05,2.73.15,3.38.61.65.45,1.06,1.07,1.25,1.83s.3,1.6.32,2.51l1.07,39.14c.02.86-.03,1.69-.15,2.49-.13.8-.51,1.46-1.15,1.98-.64.52-1.74.8-3.31.85Z" fill="#b4befe"/>
    </g>
    <g>
      <path d="M1007.85,376.34c-2.86,0-5.65-.59-8.3-1.74-2.87-1.25-5.47-3.08-7.72-5.44-2.09-2.19-3.83-4.75-5.15-7.6-1.38-2.98-2.18-6.19-2.38-9.55-.19-3.32.23-6.58,1.26-9.69.99-3.01,2.45-5.77,4.34-8.2,1.93-2.49,4.22-4.55,6.81-6.13,2.89-1.76,6.05-2.77,9.41-2.99.52-.04,1.04-.05,1.53-.05,1.74,0,3.39.21,4.92.64,1.72-.84,3.73-1.34,6.01-1.49.48-.03.95-.05,1.39-.05,2.86,0,5.34.68,7.36,2.02,2.51,1.68,4.28,4.2,4.99,7.12.32,1.32.52,2.71.61,4.13l1.37,23.41c.08,1.38.04,2.75-.12,4.09-.37,3.04-1.86,5.77-4.19,7.71-2.12,1.75-4.83,2.71-8.3,2.94-.46.03-.9.05-1.33.05-1.67,0-3.22-.23-4.63-.69-1.93.82-4.09,1.32-6.45,1.48-.47.03-.95.05-1.41.05Z" fill="#cdd6f4"/>
      <path d="M1021.07,366.7c-1.56.11-2.74-.11-3.53-.65-.79-.54-1.2-1.24-1.2-2.1l.56-1.2c-.23.47-.68,1.06-1.36,1.76-.68.7-1.58,1.36-2.71,1.95-1.13.6-2.52.95-4.16,1.06-1.94.13-3.81-.2-5.62-.98-1.8-.79-3.43-1.94-4.87-3.45-1.45-1.51-2.63-3.26-3.55-5.24-.92-1.98-1.45-4.1-1.58-6.37s.15-4.36.83-6.42,1.66-3.93,2.94-5.58,2.76-2.99,4.44-4.01c1.68-1.02,3.49-1.6,5.43-1.73,1.56-.11,2.9.04,4.03.44,1.12.4,2.07.89,2.85,1.48.77.58,1.37,1.16,1.79,1.72l-.63-.91c-.06-1.09.26-1.94.96-2.55.7-.62,1.86-.98,3.46-1.09,1.52-.1,2.62.07,3.3.53.68.46,1.12,1.08,1.32,1.89.19.8.32,1.66.37,2.56l1.37,23.41c.05.86.03,1.7-.07,2.53-.1.82-.46,1.5-1.09,2.02-.63.52-1.72.83-3.28.94ZM1009.41,357.33c1.14-.08,2.13-.45,2.98-1.12.85-.67,1.52-1.54,2.01-2.62.49-1.08.69-2.25.62-3.52s-.42-2.46-1.03-3.44c-.61-.98-1.39-1.73-2.36-2.26-.96-.52-2.01-.75-3.15-.67s-2.23.46-3.14,1.13c-.91.67-1.62,1.55-2.13,2.63-.51,1.08-.72,2.28-.65,3.59.07,1.22.42,2.32,1.05,3.3.63.98,1.46,1.74,2.48,2.29,1.03.54,2.13.78,3.31.7Z" fill="#cba6f7"/>
    </g>
    <g>
      <path d="M980.54,374.03c-.89,0-1.81-.07-2.81-.22-3.46-.5-6.11-1.68-8.09-3.61-.19-.19-.38-.38-.56-.58-.33.21-.68.4-1.03.57-1.65.82-3.54,1.24-5.6,1.24-.99,0-2.01-.09-3.12-.28-3.43-.52-6.16-1.84-8.09-3.92-.06-.06-.11-.12-.16-.18-.25.15-.51.3-.78.43-1.71.88-3.68,1.32-5.87,1.32-.89,0-1.82-.07-2.82-.22-3.43-.5-6.06-1.68-8.05-3.62-2.2-2.13-3.49-4.98-3.6-8.01-.05-1.27.02-2.6.19-3.96l2.97-23.58c.18-1.41.48-2.77.89-4.04.96-2.93,3.02-5.33,5.8-6.75,1.69-.87,3.67-1.32,5.86-1.32.89,0,1.82.07,2.82.22,2.09.3,3.92.91,5.5,1.81,1.15-.27,2.33-.41,3.52-.41.76,0,1.53.06,2.3.17,2.45.36,4.69,1.09,6.68,2.2.8.45,1.56.95,2.28,1.5.32-.13.65-.26.99-.37,1.74-.61,3.58-.91,5.47-.91.86,0,1.74.06,2.62.19,4.42.64,8.13,2.47,11.03,5.45,2.68,2.76,4.51,6.29,5.44,10.5.78,3.57.89,7.65.33,12.13l-1.52,12.06c-.18,1.46-.52,2.89-.99,4.23-.99,2.82-2.98,5.15-5.62,6.56-1.72.92-3.72,1.39-5.96,1.39Z" fill="#cdd6f4"/>
      <path d="M942.85,359.9c-1.51-.22-2.57-.62-3.17-1.21-.61-.59-.93-1.28-.96-2.06s.01-1.62.12-2.52l2.97-23.58c.11-.85.28-1.65.53-2.39s.73-1.3,1.46-1.68c.73-.38,1.87-.45,3.42-.23s2.64.72,3.27,1.47c.63.75.85,1.87.67,3.35l-.91.62c.11-.21.41-.56.9-1.04s1.1-.96,1.85-1.45c.74-.49,1.59-.88,2.55-1.17.95-.3,1.95-.37,3-.22,1.38.2,2.6.59,3.66,1.18,1.06.59,1.98,1.36,2.78,2.32.8.96,1.45,2.12,1.96,3.47.7-.81,1.52-1.59,2.47-2.32s2.02-1.31,3.22-1.73c1.21-.42,2.52-.53,3.94-.32,2.47.36,4.47,1.32,6,2.89,1.53,1.57,2.58,3.65,3.15,6.25.57,2.6.63,5.65.19,9.15l-1.52,12.06c-.11.85-.29,1.66-.56,2.42-.27.76-.76,1.33-1.46,1.71-.71.38-1.84.46-3.39.23s-2.63-.63-3.24-1.22-.93-1.29-.95-2.09c-.03-.8.01-1.63.12-2.49l1.52-12.06c.17-1.35.16-2.53-.04-3.54-.19-1.01-.55-1.82-1.07-2.42-.52-.6-1.24-.97-2.17-1.1s-1.81,0-2.54.39c-.73.4-1.33,1.04-1.78,1.94s-.77,2.08-.96,3.56l-1.52,12.06c-.11.9-.32,1.73-.63,2.48-.31.76-.84,1.32-1.59,1.69-.75.37-1.9.42-3.44.15-1.47-.21-2.48-.62-3.04-1.23s-.86-1.31-.88-2.12c-.03-.8.01-1.61.11-2.42l1.52-12.06c.17-1.35.17-2.54,0-3.57-.17-1.03-.52-1.83-1.04-2.41-.52-.58-1.27-.94-2.23-1.08-1.05-.15-1.94.02-2.69.5-.74.49-1.33,1.19-1.77,2.11-.43.92-.73,1.99-.88,3.2l-1.53,12.13c-.11.9-.29,1.72-.53,2.46-.24.74-.73,1.3-1.46,1.68-.73.38-1.87.45-3.42.23Z" fill="#b4befe"/>
    </g>
    <g>
      <path d="M910.44,370.44c-1.28-.03-2.59-.18-3.89-.45-2.99-.62-5.62-1.56-7.84-2.8-2.71-1.51-4.88-3.51-6.46-5.96-1.53-2.36-2.48-5.1-2.82-8.12-.29-2.55-.17-5.28.38-8.34l.71-3.95c-1.19-1.1-2.13-2.44-2.75-3.97-1.01-2.43-1.2-5.3-.57-8.76.63-3.53,2.06-6.33,4.23-8.31.97-.88,2.07-1.59,3.26-2.09.28-1.52.65-2.86,1.15-4.1,1.11-2.79,3.3-5.02,6.14-6.27,1.5-.66,3.18-1,4.99-1,1.16,0,2.37.13,3.69.41,3.36.69,5.91,2.02,7.78,4.05,2.07,2.27,3.17,5.04,3.19,8.04,0,.82-.04,1.64-.13,2.47,2.7,1.23,4.82,3.47,5.99,6.32.99,2.43,1.17,5.23.56,8.57-.57,3.19-1.68,5.66-3.39,7.54-1.43,1.57-3.19,2.71-5.12,3.34,1.08,1.1,1.94,2.4,2.52,3.86.92,2.3,1.09,4.94.52,8.09-.61,3.35-1.78,5.91-3.58,7.81-2.23,2.35-5.18,3.64-8.31,3.64h-.26Z" fill="#cdd6f4"/>
      <path d="M900.18,325.64l6.85,1.42,8.64,1.51c.79.16,1.52.4,2.2.7.68.3,1.18.86,1.51,1.66.33.81.34,2.03.05,3.68-.27,1.51-.69,2.58-1.25,3.2s-1.22.96-1.96,1.01c-.74.05-1.53,0-2.36-.18l-8.12-1.89-7.55-1.49c-1.19-.34-1.96-.92-2.3-1.76-.35-.83-.36-2.12-.05-3.85.29-1.6.79-2.73,1.51-3.39.72-.66,1.66-.87,2.83-.62ZM908.33,361.39c-2.12-.44-3.9-1.06-5.35-1.87-1.45-.81-2.57-1.82-3.36-3.05-.79-1.23-1.28-2.68-1.48-4.36-.19-1.68-.09-3.61.3-5.79l4.87-27.03c.17-.93.39-1.74.66-2.42.27-.68.78-1.19,1.53-1.52.75-.33,1.87-.34,3.36-.03s2.53.78,3.11,1.4c.58.63.87,1.35.87,2.15,0,.81-.07,1.64-.22,2.48l-4.77,26.5c-.13.71-.18,1.31-.16,1.8.02.49.11.87.28,1.13.17.27.43.48.79.65.36.17.81.31,1.35.42.91.19,1.71.45,2.38.77.67.33,1.15.84,1.43,1.54.28.7.29,1.79.03,3.26-.29,1.6-.73,2.71-1.31,3.33-.59.62-1.25.92-2,.9-.75-.02-1.52-.11-2.31-.27Z" fill="#cba6f7"/>
    </g>
    <g>
      <path d="M869.27,373.48c-1.74,0-3.43-.18-5.05-.55-3.61-.82-6.81-2.34-9.52-4.52-2.5-2.01-4.59-4.46-6.22-7.27-1.54-2.68-2.64-5.52-3.25-8.47-.99-4.75-.84-9.34.45-13.64,1.31-4.37,3.64-8.17,6.94-11.31,3.32-3.15,7.4-5.32,12.12-6.45,2.07-.5,4.1-.75,6.03-.75,1.46,0,2.9.14,4.27.43,3.16.66,5.98,1.89,8.4,3.66,2.29,1.68,4.19,3.7,5.64,5.99,1.43,2.25,2.41,4.62,2.91,7.02.82,3.93.57,7.46-.74,10.51.59.77,1.08,1.58,1.47,2.41.49,1.04.85,2.12,1.07,3.22.76,3.66-.17,7.39-2.63,10.49-1.61,2.03-3.77,3.76-6.61,5.27-2.43,1.3-5.24,2.31-8.59,3.12-2.31.55-4.57.83-6.7.83Z" fill="#cdd6f4"/>
      <path d="M873.93,364.11c-2.89.69-5.48.78-7.78.26-2.3-.52-4.28-1.45-5.94-2.79-1.67-1.34-3.04-2.95-4.12-4.83s-1.84-3.83-2.26-5.87c-.69-3.32-.6-6.43.27-9.33.87-2.9,2.4-5.39,4.58-7.47,2.19-2.08,4.89-3.5,8.11-4.27,2.39-.57,4.55-.66,6.48-.26,1.92.4,3.59,1.12,4.99,2.15,1.41,1.03,2.55,2.24,3.41,3.61.87,1.37,1.45,2.74,1.73,4.11.51,2.43.34,4.38-.51,5.83-.85,1.46-2.11,2.39-3.8,2.79l-14.73,3.53c.31,1.09.89,1.95,1.74,2.58.85.63,1.83,1.05,2.95,1.24,1.12.2,2.26.16,3.42-.12.95-.23,1.79-.49,2.53-.78.74-.29,1.36-.6,1.85-.93.49-.33.94-.64,1.33-.95.39-.3.76-.57,1.1-.79s.67-.39,1-.52c.57-.18,1.16-.13,1.79.16s1.23.81,1.82,1.55c.39.42.68.84.88,1.25.19.42.34.85.43,1.29.23,1.11-.07,2.19-.91,3.25-.84,1.06-2.13,2.06-3.86,2.98-1.74.92-3.9,1.7-6.5,2.32ZM863.22,346.06l9.78-2.34c.62-.15,1.07-.38,1.35-.71.28-.32.35-.84.2-1.55-.16-.75-.53-1.38-1.11-1.89s-1.29-.84-2.12-.99c-.83-.15-1.76-.1-2.8.15-1.24.3-2.3.83-3.18,1.6-.88.77-1.5,1.66-1.88,2.68-.37,1.02-.45,2.04-.24,3.05Z" fill="#b4befe"/>
    </g>
    <g>
      <path d="M843.49,376.46c-1.36,0-2.82-.2-4.44-.61-3.31-.83-5.78-2.2-7.55-4.2-.7-.79-1.29-1.65-1.75-2.57-.81.59-1.71,1.07-2.67,1.44-1.32.5-2.76.76-4.29.76-1.35,0-2.78-.19-4.37-.59-3.35-.84-5.84-2.24-7.6-4.29-1.96-2.27-2.99-5.16-2.9-8.15.04-1.33.21-2.7.51-4.07l5.08-23.31c.31-1.41.73-2.73,1.27-3.95,1.25-2.88,3.61-5.08,6.62-6.18,1.28-.47,2.68-.71,4.17-.71,1.36,0,2.79.19,4.39.59,2.44.61,4.4,1.53,5.97,2.81.38-.05.76-.08,1.14-.11.42-.03.83-.04,1.24-.04,1.51,0,3,.18,4.43.54,3.27.82,6.15,2.26,8.55,4.28,2.41,2.03,4.29,4.57,5.58,7.53,1.16,2.66,1.85,5.6,2.04,8.72.18,2.91-.08,5.96-.76,9.07l-2.63,12.05c-.29,1.36-.71,2.68-1.23,3.92-1.25,2.94-3.56,5.17-6.51,6.3-1.31.5-2.75.76-4.28.76Z" fill="#cdd6f4"/>
      <path d="M820.56,362.18c-1.52-.38-2.55-.88-3.09-1.51-.54-.62-.79-1.34-.77-2.15.02-.81.13-1.63.31-2.47l5.08-23.31c.18-.84.42-1.6.73-2.3.3-.69.83-1.18,1.59-1.45.75-.28,1.89-.23,3.42.16,1.32.33,2.24.76,2.78,1.29.54.53.84,1.08.91,1.66s.05,1.1-.05,1.56-.13.79-.09.99l-.64,1.17c.23-.64.69-1.23,1.4-1.78.71-.54,1.54-.99,2.5-1.33.96-.34,1.96-.54,3-.61,1.03-.07,2.02.02,2.97.25,1.98.49,3.65,1.32,5.03,2.48,1.38,1.16,2.44,2.6,3.19,4.33.75,1.73,1.19,3.64,1.32,5.74.13,2.1-.06,4.33-.57,6.66l-2.62,12.05c-.18.84-.43,1.63-.74,2.36-.31.74-.84,1.24-1.57,1.53-.73.28-1.88.23-3.45-.17-1.52-.38-2.56-.89-3.12-1.51-.56-.63-.82-1.35-.8-2.16.02-.81.13-1.63.31-2.47l2.61-11.98c.29-1.32.32-2.5.09-3.54-.23-1.03-.69-1.9-1.39-2.58-.7-.68-1.64-1.18-2.84-1.48s-2.28-.3-3.25-.01c-.97.29-1.8.84-2.47,1.65-.68.81-1.15,1.85-1.43,3.13l-2.62,12.05c-.18.84-.43,1.63-.74,2.36-.31.74-.84,1.25-1.57,1.53-.73.28-1.86.23-3.39-.15Z" fill="#cba6f7"/>
    </g>
    <g>
      <path d="M797.66,372.04c-2.38,0-4.5-.51-6.29-1.52-2.67-1.49-4.64-3.96-5.52-6.95-.38-1.29-.65-2.64-.8-4.02l-2.52-23.58c-.16-1.44-.18-2.85-.07-4.19.25-3.01,1.65-5.8,3.94-7.84,1.99-1.78,4.62-2.86,8.03-3.28.85-.11,1.67-.16,2.44-.16,1.02,0,1.99.09,2.91.28,1.8-.97,3.85-1.6,6.08-1.87.82-.1,1.7-.15,2.62-.15h0c1.2,0,2.38.12,3.57.36,1.4.28,2.76.75,4.01,1.4,1.63.83,3.04,1.98,4.19,3.4,1.43,1.78,2.31,3.96,2.56,6.34.37,3.48-.13,6.7-1.5,9.57-1.95,4.08-5.48,6.71-9.67,7.22-.21.03-.42.05-.62.07l1.02,9.52c.15,1.38.17,2.76.07,4.1-.25,3.14-1.7,5.97-4.08,8.01-1.99,1.69-4.57,2.71-7.9,3.12-.86.11-1.69.16-2.46.16Z" fill="#cdd6f4"/>
      <path d="M799.04,363.17c-1.55.19-2.68.09-3.38-.3-.7-.39-1.17-.98-1.4-1.78-.23-.79-.4-1.62-.49-2.47l-2.52-23.57c-.1-.9-.11-1.74-.05-2.53.06-.78.41-1.45,1.03-2.01.62-.56,1.71-.93,3.26-1.12,1.47-.18,2.55-.1,3.25.25.7.35,1.16.79,1.39,1.34.23.54.36,1.02.41,1.42l-.71.5c.06-.19.25-.54.56-1.06.31-.52.75-1.07,1.32-1.67.57-.59,1.29-1.13,2.16-1.6.86-.47,1.88-.78,3.06-.92.46-.06.98-.09,1.55-.09.57,0,1.18.06,1.81.19.63.13,1.22.33,1.76.6.54.27.99.64,1.36,1.1.37.46.59,1.05.67,1.77.2,1.85-.03,3.46-.7,4.84-.66,1.38-1.6,2.15-2.82,2.3-.71.09-1.22.09-1.53.02-.31-.08-.56-.18-.77-.32-.21-.13-.44-.24-.7-.32-.26-.08-.73-.08-1.41,0-.63.08-1.22.24-1.77.49-.55.25-1.04.6-1.48,1.04-.44.44-.77.96-.98,1.56-.21.6-.28,1.26-.2,1.97l1.58,14.79c.09.86.11,1.69.04,2.49-.06.81-.41,1.48-1.03,2.01-.63.53-1.71.9-3.27,1.09Z" fill="#b4befe"/>
    </g>
    <g>
      <path d="M770.54,364.23c-3.41,0-6.58-.58-9.41-1.74-3.41-1.39-6.33-3.4-8.67-5.98-2.16-2.38-3.86-5.11-5.04-8.13-1.13-2.88-1.8-5.86-1.98-8.86-.29-4.86.52-9.37,2.42-13.43,1.94-4.14,4.82-7.55,8.57-10.13,3.77-2.59,8.14-4.07,13-4.41.67-.05,1.34-.07,1.99-.07,2.96,0,5.72.49,8.21,1.45,3,1.16,5.59,2.83,7.7,4.96,2,2.02,3.56,4.29,4.65,6.76,1.08,2.44,1.71,4.92,1.85,7.37.24,4.02-.51,7.47-2.25,10.28.48.86.85,1.75,1.12,2.64.33,1.1.52,2.21.59,3.32.23,3.78-1.26,7.34-4.18,10.04-1.9,1.76-4.32,3.13-7.37,4.17-2.6.88-5.54,1.43-8.97,1.66-.75.05-1.5.08-2.23.08Z" fill="#cdd6f4"/>
      <path d="M772.16,355.39c-2.95.21-5.53-.14-7.72-1.03-2.19-.89-4.02-2.14-5.47-3.74-1.45-1.6-2.58-3.42-3.38-5.45s-1.26-4.09-1.39-6.17c-.21-3.39.33-6.45,1.61-9.17,1.27-2.72,3.14-4.93,5.6-6.62,2.46-1.69,5.33-2.65,8.63-2.88,2.45-.17,4.59.1,6.44.81,1.84.71,3.38,1.69,4.63,2.95,1.24,1.25,2.19,2.63,2.86,4.13.66,1.5,1.04,2.95,1.12,4.35.15,2.49-.3,4.38-1.34,5.68-1.04,1.3-2.43,2.01-4.16,2.13l-15.06,1.05c.15,1.13.6,2.07,1.35,2.84.74.77,1.66,1.34,2.74,1.72,1.08.38,2.21.53,3.39.45.97-.07,1.84-.19,2.62-.35.77-.17,1.43-.37,1.97-.61.53-.24,1.02-.48,1.45-.71.43-.23.83-.43,1.2-.6s.72-.28,1.06-.35c.59-.08,1.17.07,1.74.46s1.1,1,1.57,1.83c.33.48.55.94.69,1.38.13.44.21.9.24,1.35.07,1.13-.39,2.15-1.37,3.06-.98.91-2.4,1.68-4.25,2.31-1.85.63-4.1,1.03-6.76,1.22ZM764.17,335.78l10-.7c.63-.04,1.11-.2,1.43-.47.32-.27.46-.77.42-1.49-.05-.77-.32-1.45-.82-2.05s-1.15-1.04-1.95-1.33c-.8-.29-1.73-.39-2.78-.32-1.27.09-2.39.44-3.37,1.05-.98.61-1.73,1.39-2.24,2.34-.51.94-.74,1.94-.68,2.98Z" fill="#cba6f7"/>
    </g>
    <g>
      <path d="M744.23,362.91c-1.28-.03-2.59-.18-3.89-.46-2.98-.62-5.62-1.57-7.84-2.81-2.71-1.51-4.88-3.52-6.45-5.97-1.52-2.36-2.47-5.09-2.81-8.12-.29-2.56-.16-5.29.39-8.35l.72-3.95c-1.19-1.11-2.12-2.44-2.75-3.97-1-2.43-1.19-5.3-.56-8.76.64-3.54,2.07-6.33,4.25-8.32.97-.88,2.07-1.58,3.26-2.08.28-1.52.66-2.86,1.16-4.1,1.12-2.79,3.3-5.02,6.15-6.27,1.5-.66,3.17-.99,4.97-.99,1.16,0,2.38.13,3.71.41,3.37.7,5.91,2.03,7.78,4.06,2.07,2.27,3.17,5.04,3.18,8.05,0,.81-.04,1.64-.13,2.46,2.7,1.24,4.81,3.48,5.98,6.33.98,2.43,1.16,5.22.55,8.56-.58,3.21-1.7,5.67-3.41,7.55-1.42,1.56-3.18,2.7-5.11,3.33,1.08,1.1,1.94,2.4,2.52,3.86.91,2.3,1.08,4.94.51,8.08-.61,3.36-1.79,5.91-3.6,7.81-2.22,2.33-5.17,3.62-8.3,3.62h-.27Z" fill="#cdd6f4"/>
      <path d="M734.02,318.09l6.85,1.43,8.64,1.52c.79.16,1.52.4,2.2.7.68.3,1.18.86,1.51,1.67.33.81.34,2.04.04,3.68-.27,1.51-.69,2.58-1.26,3.2s-1.22.96-1.96,1.01c-.74.05-1.53,0-2.36-.18l-8.12-1.9-7.54-1.5c-1.19-.34-1.95-.93-2.3-1.76-.34-.83-.36-2.12-.04-3.85.29-1.6.8-2.73,1.52-3.39.72-.66,1.66-.86,2.83-.62ZM742.13,353.86c-2.12-.44-3.9-1.07-5.34-1.88-1.45-.81-2.57-1.83-3.35-3.05-.79-1.23-1.28-2.68-1.47-4.36-.19-1.68-.09-3.61.31-5.79l4.9-27.03c.17-.93.39-1.74.67-2.42.27-.68.78-1.19,1.53-1.52.75-.33,1.87-.34,3.36-.03s2.53.78,3.1,1.41c.57.63.86,1.35.87,2.16,0,.81-.07,1.64-.22,2.48l-4.81,26.49c-.13.71-.19,1.31-.17,1.8.02.49.11.87.28,1.13.17.27.43.48.79.65.36.17.81.31,1.34.42.91.19,1.71.45,2.38.77.67.33,1.15.84,1.43,1.55.28.7.29,1.79.02,3.26-.29,1.6-.73,2.71-1.31,3.33-.59.62-1.25.92-2,.9-.75-.02-1.52-.11-2.31-.27Z" fill="#b4befe"/>
    </g>
    <g>
      <path d="M714.69,364.06c-1.14,0-2.34-.13-3.68-.38-3.36-.65-5.9-1.9-7.78-3.81-.73-.74-1.35-1.56-1.85-2.44-.78.63-1.64,1.16-2.58,1.57-1.51.67-3.19,1.01-5.02,1.01-1.12,0-2.31-.12-3.61-.38-3.4-.66-5.97-1.93-7.84-3.9-2.07-2.17-3.25-5.02-3.29-8.02-.02-1.32.08-2.7.31-4.09l3.97-23.55c.24-1.41.6-2.76,1.08-4.01,1.1-2.91,3.33-5.22,6.27-6.47,1.46-.63,3.12-.95,4.91-.95,1.13,0,2.32.12,3.62.38,2.46.48,4.47,1.29,6.11,2.48.37-.07.75-.12,1.12-.17.75-.09,1.51-.14,2.25-.14,1.16,0,2.32.11,3.44.33,3.31.64,6.26,1.93,8.76,3.83,2.52,1.91,4.52,4.35,5.96,7.24,1.29,2.61,2.11,5.5,2.45,8.61.31,2.9.2,5.96-.33,9.1l-2.05,12.18c-.23,1.38-.59,2.72-1.05,3.98-1.09,2.96-3.28,5.3-6.15,6.59-1.51.67-3.2,1.01-5.02,1.01Z" fill="#cdd6f4"/>
      <path d="M691.84,351.01c-1.54-.3-2.59-.74-3.16-1.34-.57-.59-.86-1.3-.87-2.1-.01-.81.05-1.64.19-2.48l3.97-23.55c.14-.85.35-1.62.62-2.33.27-.71.77-1.22,1.52-1.54.74-.32,1.88-.33,3.42-.03,1.33.26,2.28.64,2.84,1.14.56.5.89,1.04.99,1.61s.11,1.09.03,1.56-.09.8-.04.99l-.59,1.2c.2-.65.63-1.27,1.31-1.85.68-.58,1.49-1.07,2.44-1.46.95-.39,1.93-.65,2.96-.77,1.03-.12,2.02-.09,2.98.09,2,.39,3.71,1.12,5.14,2.21,1.43,1.08,2.56,2.47,3.39,4.15.83,1.68,1.36,3.57,1.59,5.66.23,2.09.14,4.32-.26,6.69l-2.05,12.18c-.14.85-.35,1.65-.63,2.4-.28.75-.78,1.29-1.5,1.61-.72.32-1.87.33-3.45.02s-2.6-.75-3.19-1.34c-.59-.6-.89-1.3-.9-2.11-.01-.81.05-1.64.19-2.48l2.04-12.11c.23-1.34.2-2.52-.08-3.54-.28-1.02-.78-1.86-1.51-2.5-.73-.65-1.7-1.09-2.9-1.32s-2.29-.18-3.25.16c-.96.34-1.76.94-2.39,1.78-.64.84-1.06,1.91-1.28,3.21l-2.05,12.18c-.14.85-.35,1.65-.63,2.4-.28.75-.78,1.29-1.5,1.61s-1.85.33-3.39.03Z" fill="#cba6f7"/>
    </g>
    <g>
      <path d="M675.56,370.54c-2.06,0-3.94-.41-5.59-1.22-2.82-1.38-4.94-3.79-5.94-6.8-.43-1.28-.75-2.62-.94-4l-5.26-36.76c-.2-1.39-.27-2.77-.21-4.11.13-3,1.33-5.74,3.48-7.91,1.96-1.97,4.58-3.2,8.03-3.77,1.13-.18,2.15-.27,3.13-.27,2.2,0,4.19.47,5.91,1.39,2.67,1.44,4.65,3.79,5.62,6.62.43,1.28.76,2.64.96,4.07l5.26,36.76c.21,1.45.27,2.91.17,4.33-.2,2.96-1.42,5.63-3.53,7.72-1.91,1.91-4.54,3.12-8.01,3.69-1.09.18-2.09.27-3.07.27Z" fill="#cdd6f4"/>
      <path d="M677.21,361.62c-1.5.25-2.62.19-3.36-.17-.74-.36-1.23-.93-1.5-1.71-.26-.78-.45-1.6-.58-2.45l-5.26-36.76c-.12-.85-.17-1.68-.13-2.49s.35-1.51.95-2.12c.6-.6,1.67-1.03,3.22-1.29s2.74-.2,3.46.19c.72.39,1.21.96,1.47,1.72.26.76.45,1.59.58,2.48l5.26,36.76c.12.85.16,1.68.1,2.49-.05.81-.37,1.51-.95,2.08-.58.58-1.66,1-3.25,1.26Z" fill="#b4befe"/>
    </g>
    <g>
      <path d="M648.67,373.82c-.65,0-1.34-.03-2.06-.1-3.42-.32-6.08-1.33-8.13-3.06-.77-.66-1.45-1.4-2.03-2.2-.72.7-1.53,1.31-2.42,1.82-1.86,1.05-3.99,1.56-6.51,1.56-.63,0-1.31-.03-2.01-.1-3.46-.33-6.15-1.36-8.2-3.15-2.28-1.98-3.7-4.73-4.01-7.73-.14-1.32-.15-2.7-.03-4.1l1.95-23.84c.12-1.43.36-2.8.73-4.08.85-2.98,2.85-5.47,5.62-6.98,1.83-1,3.93-1.49,6.41-1.49.63,0,1.31.03,2.01.1,2.49.23,4.57.85,6.3,1.87.36-.1.73-.19,1.09-.27,1.34-.29,2.68-.44,4.01-.44.56,0,1.12.03,1.68.08,3.37.32,6.43,1.32,9.1,2.97,2.69,1.67,4.91,3.92,6.6,6.69,1.51,2.48,2.59,5.3,3.19,8.37.56,2.85.71,5.91.45,9.09l-1.01,12.32c-.11,1.39-.35,2.75-.7,4.04-.83,3.04-2.78,5.55-5.5,7.09-1.86,1.05-3.99,1.56-6.53,1.56Z" fill="#cdd6f4"/>
      <path d="M626.35,362.99c-1.56-.15-2.64-.49-3.26-1.02-.62-.54-.96-1.21-1.04-2.01-.08-.8-.09-1.63-.02-2.49l1.95-23.84c.07-.86.21-1.65.42-2.38.21-.73.67-1.29,1.38-1.68.71-.39,1.84-.51,3.4-.36,1.35.13,2.32.41,2.92.86.6.44.97.94,1.12,1.5s.2,1.08.16,1.55-.02.81.05.99l-.48,1.25c.14-.67.52-1.33,1.15-1.97.63-.65,1.39-1.21,2.3-1.69.91-.48,1.87-.84,2.89-1.06,1.01-.22,2.01-.29,2.98-.2,2.02.19,3.79.76,5.3,1.69,1.51.94,2.76,2.21,3.73,3.8.97,1.59,1.66,3.42,2.07,5.48.4,2.06.51,4.29.31,6.68l-1.01,12.33c-.07.86-.21,1.68-.42,2.45-.21.78-.66,1.36-1.35,1.75-.69.39-1.83.51-3.43.36s-2.66-.49-3.29-1.03c-.63-.54-.99-1.21-1.08-2.01-.08-.8-.09-1.63-.02-2.49l1-12.26c.11-1.35-.02-2.53-.38-3.52-.36-.99-.94-1.77-1.72-2.35-.78-.57-1.78-.92-3-1.03s-2.29.04-3.22.48c-.93.43-1.67,1.1-2.23,2.01-.56.9-.9,2.01-1,3.32l-1.01,12.33c-.07.86-.21,1.68-.42,2.45-.21.78-.66,1.36-1.35,1.75s-1.81.51-3.37.36Z" fill="#cba6f7"/>
    </g>
    <g>
      <path d="M599.19,373.63c-3.7,0-7.11-.66-10.11-1.97-3.38-1.47-6.25-3.55-8.53-6.18-2.1-2.42-3.74-5.2-4.86-8.24-1.07-2.91-1.68-5.9-1.79-8.9-.19-4.86.72-9.36,2.71-13.37,2.03-4.09,4.99-7.44,8.8-9.93,3.83-2.5,8.23-3.88,13.1-4.1.44-.02.88-.03,1.31-.03,3.21,0,6.19.56,8.85,1.66,2.97,1.23,5.52,2.96,7.58,5.14,1.95,2.06,3.46,4.37,4.5,6.86,1.03,2.46,1.6,4.96,1.69,7.4.16,4.02-.67,7.45-2.47,10.23.46.87.81,1.76,1.06,2.65.31,1.12.48,2.23.52,3.35.15,3.79-1.41,7.32-4.4,9.96-1.95,1.73-4.4,3.03-7.48,4-2.62.82-5.56,1.29-9.01,1.45-.5.02-.99.03-1.47.03Z" fill="#cdd6f4"/>
      <path d="M600.27,364.83c-2.96.13-5.52-.27-7.7-1.22s-3.97-2.24-5.39-3.87c-1.42-1.64-2.51-3.48-3.26-5.53-.76-2.05-1.18-4.12-1.26-6.2-.13-3.4.47-6.44,1.8-9.13,1.33-2.69,3.25-4.85,5.74-6.49,2.5-1.63,5.39-2.52,8.68-2.67,2.45-.11,4.59.21,6.42.97,1.83.76,3.35,1.78,4.56,3.06,1.21,1.28,2.14,2.68,2.77,4.2.63,1.51.97,2.97,1.03,4.38.1,2.49-.39,4.37-1.46,5.65-1.07,1.27-2.47,1.95-4.2,2.03l-15.08.68c.13,1.13.56,2.08,1.29,2.87.73.78,1.63,1.38,2.7,1.78,1.07.41,2.2.58,3.38.53.97-.04,1.84-.14,2.62-.29.78-.15,1.44-.34,1.98-.56.54-.23,1.03-.45,1.46-.68.43-.22.84-.41,1.22-.57s.73-.26,1.07-.32c.59-.07,1.17.1,1.73.5s1.08,1.03,1.53,1.87c.32.49.53.95.66,1.4.12.45.19.9.21,1.35.04,1.13-.43,2.14-1.44,3.02-1,.89-2.43,1.62-4.29,2.2-1.86.58-4.12.93-6.78,1.05ZM592.71,345.03l10.01-.45c.63-.03,1.11-.17,1.44-.44.33-.26.48-.76.45-1.48-.03-.77-.29-1.46-.78-2.07s-1.13-1.07-1.93-1.38c-.8-.31-1.72-.43-2.78-.39-1.27.06-2.4.38-3.39.97-.99.59-1.75,1.35-2.29,2.28-.53.93-.78,1.92-.74,2.96Z" fill="#b4befe"/>
    </g>
    <g>
      <path d="M546.78,384.16c-1.16,0-2.37-.13-3.7-.41-3.31-.68-5.83-1.95-7.69-3.89-2.15-2.22-3.33-5.14-3.3-8.19,0-1.24.13-2.55.37-3.87l6.65-37.33c.24-1.37.58-2.66,1-3.83,1.02-2.84,3.11-5.15,5.87-6.51,1.62-.79,3.42-1.19,5.39-1.19,1.13,0,2.3.13,3.58.39,2.12.43,3.98,1.16,5.55,2.16.75-.09,1.5-.14,2.27-.14,1.37,0,2.79.15,4.2.44,3.23.66,6.21,2.07,8.85,4.18,2.36,1.9,4.37,4.23,5.98,6.94,1.59,2.68,2.71,5.64,3.31,8.8.61,3.21.62,6.49.04,9.76-.59,3.3-1.75,6.38-3.44,9.13-1.69,2.76-3.8,5.09-6.27,6.95-2.52,1.89-5.29,3.23-8.25,4-1.72.44-3.49.67-5.25.67-.92,0-1.86-.06-2.79-.18l-.09.5c-.22,1.54-.62,3.01-1.19,4.37-1.14,2.74-3.27,4.94-5.98,6.19-1.52.7-3.25,1.06-5.12,1.06Z" fill="#cdd6f4"/>
      <path d="M544.84,375.15c-1.49-.31-2.53-.76-3.11-1.37-.58-.6-.87-1.29-.86-2.05,0-.76.08-1.56.23-2.41l6.65-37.33c.16-.89.37-1.69.62-2.4.26-.71.75-1.24,1.48-1.6.73-.36,1.85-.38,3.34-.08,1.29.26,2.28.68,2.98,1.23s1.13,1.3,1.32,2.21l-7.09,39.8c-.11.85-.31,1.64-.62,2.36s-.81,1.25-1.54,1.59c-.73.34-1.86.35-3.39.03ZM559.37,363.18c-2.04-.42-3.74-1.22-5.12-2.4-1.38-1.18-2.45-2.62-3.2-4.32s-1.21-3.58-1.38-5.65c-.17-2.06-.03-4.23.41-6.49.39-2.18,1.03-4.21,1.92-6.08s1.98-3.47,3.28-4.8,2.77-2.27,4.44-2.83c1.67-.56,3.5-.63,5.5-.22,1.87.38,3.57,1.19,5.12,2.43,1.54,1.24,2.85,2.76,3.93,4.58,1.08,1.81,1.82,3.8,2.23,5.96.41,2.16.42,4.36.02,6.58s-1.16,4.25-2.28,6.07c-1.12,1.83-2.48,3.34-4.07,4.53-1.59,1.2-3.31,2.03-5.16,2.51s-3.73.52-5.64.12ZM559.8,353.51c1.16.24,2.26.15,3.28-.26,1.02-.41,1.9-1.07,2.65-1.99.74-.91,1.23-1.99,1.45-3.23s.15-2.44-.2-3.57c-.36-1.13-.95-2.09-1.78-2.86-.83-.77-1.81-1.27-2.93-1.5s-2.2-.14-3.24.27c-1.04.41-1.91,1.06-2.61,1.96-.7.9-1.16,1.97-1.38,3.21s-.15,2.44.2,3.57c.36,1.14.94,2.1,1.75,2.88.81.79,1.75,1.29,2.83,1.51Z" fill="#cba6f7"/>
    </g>
    <g>
      <path d="M522.34,369.44c-1.93,0-3.89-.24-5.84-.73-3.1-.76-6.03-2.1-8.72-3.98-2.76-1.93-5.11-4.4-6.97-7.36-1.9-3.01-3.14-6.48-3.69-10.29-.51-3.54-.34-7.02.49-10.35.81-3.23,2.16-6.24,4.02-8.95,1.88-2.74,4.2-5.08,6.91-6.93,2.88-1.96,6.09-3.25,9.57-3.82,1.38-.23,2.76-.34,4.11-.34,3.21,0,6.34.64,9.29,1.91,4.05,1.74,7.51,4.44,10.27,8.05,2.76,3.61,4.5,7.82,5.18,12.54.56,3.93.36,7.67-.6,11.12-.93,3.34-2.42,6.38-4.44,9.04-2,2.65-4.4,4.84-7.12,6.5-2.75,1.69-5.69,2.8-8.72,3.3-1.23.2-2.49.31-3.74.31Z" fill="#cdd6f4"/>
      <path d="M524.65,360.47c-1.96.32-3.98.23-6.04-.28-2.06-.51-4-1.39-5.8-2.66-1.81-1.26-3.33-2.88-4.58-4.85-1.25-1.97-2.05-4.26-2.43-6.86-.35-2.42-.24-4.74.32-6.97.56-2.22,1.47-4.27,2.75-6.13,1.27-1.86,2.81-3.41,4.63-4.65,1.81-1.24,3.82-2.04,6.04-2.41,3.01-.5,5.85-.17,8.51.97,2.67,1.14,4.92,2.92,6.76,5.32,1.84,2.4,2.99,5.22,3.45,8.44.39,2.73.27,5.24-.37,7.52s-1.63,4.31-2.98,6.09c-1.35,1.78-2.92,3.22-4.71,4.32s-3.64,1.8-5.57,2.12ZM523.07,350.34c1-.17,1.99-.6,2.96-1.31s1.73-1.66,2.29-2.85c.56-1.19.71-2.62.48-4.28-.21-1.43-.68-2.64-1.42-3.62s-1.66-1.69-2.77-2.12c-1.11-.44-2.33-.54-3.67-.32-1.25.21-2.33.7-3.22,1.49-.89.79-1.56,1.78-2.01,2.98-.45,1.2-.57,2.49-.38,3.88.23,1.61.77,2.91,1.62,3.9.85.98,1.83,1.65,2.95,1.99,1.12.34,2.18.43,3.18.27Z" fill="#b4befe"/>
    </g>
    <g>
      <path d="M471.74,366.38c-.69,0-1.38-.03-2.05-.1-3.68-.34-7.06-1.45-10.02-3.29-2.73-1.7-5.11-3.88-7.04-6.48-1.84-2.46-3.25-5.17-4.2-8.03-1.52-4.59-1.88-9.17-1.08-13.6.8-4.48,2.68-8.53,5.58-12.04,2.92-3.53,6.7-6.19,11.23-7.91,2.96-1.12,5.87-1.69,8.65-1.69.52,0,1.03.02,1.53.06,3.22.25,6.19,1.11,8.81,2.58,2.48,1.39,4.61,3.16,6.32,5.26,1.7,2.08,2.94,4.32,3.71,6.66,1.25,3.8,1.4,7.33.44,10.52.66.68,1.23,1.41,1.7,2.18.61,1,1.1,2.03,1.45,3.11,1.16,3.53.66,7.33-1.41,10.69-1.35,2.19-3.28,4.17-5.91,6.02-2.25,1.59-4.91,2.95-8.14,4.18-3.3,1.25-6.52,1.88-9.57,1.88Z" fill="#cdd6f4"/>
      <path d="M478.2,356.29c-2.79,1.06-5.35,1.48-7.69,1.26-2.34-.22-4.41-.89-6.21-2.01-1.8-1.12-3.35-2.54-4.63-4.26-1.29-1.72-2.25-3.57-2.9-5.53-1.06-3.21-1.32-6.3-.78-9.3.54-2.99,1.78-5.66,3.71-8.01,1.94-2.34,4.46-4.11,7.57-5.29,2.31-.88,4.45-1.24,6.4-1.09,1.95.15,3.69.65,5.2,1.49,1.51.85,2.78,1.89,3.79,3.14,1.02,1.25,1.74,2.54,2.18,3.86.78,2.35.82,4.3.15,5.86-.68,1.55-1.83,2.64-3.46,3.26l-14.23,5.4c.43,1.04,1.1,1.82,2.02,2.34s1.94.81,3.07.85c1.14.05,2.26-.14,3.38-.56.92-.35,1.73-.72,2.43-1.1.7-.39,1.28-.77,1.74-1.16.45-.39.86-.76,1.21-1.11.35-.35.69-.66,1.01-.92s.63-.48.93-.64c.54-.25,1.14-.28,1.79-.07s1.31.64,1.98,1.3c.43.37.77.74,1.01,1.13.24.39.43.8.57,1.23.35,1.07.17,2.18-.54,3.34-.72,1.16-1.88,2.31-3.5,3.46-1.62,1.14-3.68,2.19-6.19,3.14ZM465.55,339.74l9.45-3.58c.6-.23,1.02-.52,1.26-.87.24-.36.25-.88.02-1.56-.24-.73-.68-1.31-1.31-1.74-.64-.43-1.38-.67-2.22-.71-.84-.04-1.76.13-2.76.51-1.2.45-2.19,1.12-2.97,1.99-.79.88-1.31,1.84-1.57,2.9-.26,1.06-.22,2.08.1,3.06Z" fill="#cba6f7"/>
    </g>
    <g>
      <path d="M426.66,365.27c-2.84,0-5.19-.62-7.19-1.88-2.57-1.62-4.4-4.15-5.14-7.12-.32-1.28-.53-2.67-.61-4.12l-2.31-39.08c-.09-1.53-.02-3.02.2-4.42.46-2.91,1.91-5.45,4.2-7.34,2.09-1.73,4.8-2.7,8.28-2.93.51-.03.98-.05,1.43-.05,2.88,0,5.37.68,7.38,2.01,2.51,1.67,4.23,4.07,4.97,6.96.33,1.32.54,2.71.63,4.15l.09,1.46c3.8.01,7.37.99,10.62,2.91,3.47,2.05,6.32,4.97,8.48,8.68,2.08,3.6,3.27,7.73,3.54,12.3l.73,12.28c.09,1.52.02,3-.19,4.4-.46,2.88-1.86,5.39-4.06,7.27-2.09,1.79-4.84,2.78-8.42,3.03-.5.03-.98.05-1.43.05-2.73,0-5.12-.61-7.08-1.81-.86-.52-1.64-1.15-2.33-1.85-.57.77-1.24,1.48-2.01,2.11-2.11,1.75-4.82,2.71-8.29,2.94-.51.04-1.01.05-1.47.05Z" fill="#cdd6f4"/>
      <path d="M427.54,356.46c-1.56.11-2.68-.06-3.36-.49-.68-.43-1.12-1.04-1.31-1.82-.2-.78-.32-1.62-.37-2.53l-2.31-39.08c-.05-.9-.02-1.75.1-2.53s.5-1.43,1.12-1.95c.63-.52,1.72-.83,3.28-.94s2.68.07,3.37.52c.68.45,1.12,1.06,1.31,1.82.19.76.32,1.59.37,2.5l.82,13.84c.71-.91,1.64-1.79,2.8-2.64,1.16-.85,2.56-1.33,4.2-1.44,2.61-.18,5.01.38,7.18,1.66,2.17,1.28,3.95,3.13,5.35,5.53,1.39,2.4,2.18,5.21,2.37,8.42l.73,12.28c.05.91.02,1.75-.1,2.53-.12.78-.49,1.43-1.09,1.95-.6.52-1.71.83-3.31.94-1.52.1-2.63-.06-3.33-.49-.7-.43-1.15-1.03-1.35-1.82-.2-.78-.32-1.62-.37-2.53l-.73-12.28c-.08-1.31-.35-2.42-.83-3.32-.48-.9-1.14-1.59-2-2.08s-1.87-.69-3.05-.61c-1.56.11-2.89.71-3.99,1.8-1.1,1.1-1.69,2.38-1.77,3.83l.8,13.5c.05.91.02,1.75-.1,2.53-.12.78-.5,1.43-1.12,1.95-.63.52-1.72.83-3.28.94Z" fill="#b4befe"/>
    </g>
    <g>
      <path d="M390.49,364.87c-.85,0-1.74-.06-2.7-.19-3.32-.45-5.91-1.55-7.89-3.37-2.26-2.05-3.63-4.88-3.83-7.94-.09-1.32-.06-2.7.11-4.1l2.89-24.76-1.64-.22c-1.38-.18-2.72-.53-4-1.04-2.63-1.04-4.72-2.97-6.02-5.6-1.11-2.25-1.47-4.89-1.1-8.08.37-3.13,1.31-5.58,2.88-7.5,1.99-2.42,4.74-3.89,7.76-4.13.48-.04.94-.06,1.4-.06.81,0,1.63.06,2.44.16l29.83,4c1.34.18,2.62.49,3.8.92,2.83,1.04,5.08,3.18,6.35,6.01.97,2.17,1.26,4.71.91,7.78-.36,3.05-1.24,5.45-2.71,7.34-1.97,2.53-4.77,4.06-7.88,4.3-.45.03-.9.05-1.36.05-.82,0-1.67-.06-2.53-.17l-1.28-.17-2.86,24.52c-.16,1.4-.45,2.75-.85,4.02-.92,2.9-2.9,5.3-5.59,6.76-1.74.95-3.81,1.44-6.11,1.44Z" fill="#cdd6f4"/>
      <path d="M409.44,310.76c.71.1,1.37.25,1.96.47.59.22,1.04.67,1.34,1.35.3.68.37,1.74.2,3.18s-.47,2.38-.92,2.96-1,.89-1.64.94c-.65.05-1.32.03-2.04-.07l-10.13-1.36-3.9,33.39c-.1.85-.27,1.65-.5,2.4-.24.75-.71,1.31-1.41,1.69-.71.39-1.85.47-3.45.26-1.47-.2-2.51-.58-3.13-1.14-.62-.56-.95-1.25-1.01-2.05-.06-.81-.03-1.64.07-2.49l3.89-33.33-10.19-1.37c-.67-.09-1.31-.26-1.92-.5-.61-.24-1.08-.69-1.41-1.35-.33-.66-.41-1.71-.24-3.15s.48-2.38.95-2.96c.47-.58,1.03-.89,1.68-.94.64-.05,1.3-.03,1.97.06l29.82,4Z" fill="#cba6f7"/>
    </g>
  </g>
</svg>